<?xml version="1.0" standalone="no"?>
<!DOCTYPE svg PUBLIC "-//W3C//DTD SVG 20010904//EN"
 "http://www.w3.org/TR/2001/REC-SVG-20010904/DTD/svg10.dtd">
<svg version="1.0" xmlns="http://www.w3.org/2000/svg"
 width="700.000000pt" height="233.000000pt" viewBox="0 0 700.000000 233.000000"
 preserveAspectRatio="xMidYMid meet">

<g transform="translate(0.000000,233.000000) scale(0.100000,-0.100000)"
fill="#000000" stroke="none">
<path d="M6416 1887 l-119 -142 67 -3 c36 -2 66 -5 66 -8 0 -2 -29 -39 -65
-82 l-65 -77 65 -3 c36 -2 65 -6 65 -10 0 -4 -29 -41 -65 -82 -35 -41 -64 -78
-65 -82 0 -4 109 -7 242 -8 231 -1 241 0 227 17 -8 10 -41 48 -72 85 -31 36
-57 69 -57 72 0 3 32 6 71 6 l70 0 -71 83 -72 82 71 3 71 3 -121 144 c-67 80
-122 145 -123 145 -1 0 -54 -65 -120 -143z"/>
<path d="M3450 1672 c-87 -43 -77 -172 15 -202 75 -25 155 29 155 105 0 42
-28 85 -65 101 -45 18 -63 18 -105 -4z"/>
<path d="M3077 1673 c-4 -3 -7 -237 -7 -520 l0 -513 100 0 100 0 0 520 0 520
-93 0 c-52 0 -97 -3 -100 -7z"/>
<path d="M500 1130 l0 -490 265 0 265 0 0 90 0 90 -165 0 -165 0 0 400 0 400
-100 0 -100 0 0 -490z"/>
<path d="M1832 1193 c4 -313 7 -374 21 -411 42 -109 96 -144 235 -150 l92 -4
0 85 0 84 -51 5 c-34 4 -58 12 -72 27 -21 20 -22 32 -25 211 l-3 189 73 3 73
3 3 78 3 77 -76 0 -75 0 0 85 0 85 -101 0 -101 0 4 -367z"/>
<path d="M1288 1395 c-46 -12 -150 -56 -167 -71 -3 -3 68 -134 73 -134 2 0 24
9 49 20 26 12 75 23 110 27 115 10 177 -29 177 -113 l0 -43 -37 17 c-60 26
-204 22 -270 -7 -169 -75 -201 -286 -61 -405 84 -72 236 -87 333 -32 57 31 55
31 55 6 0 -19 7 -20 91 -20 l91 0 -4 288 c-3 251 -6 292 -22 330 -22 51 -90
113 -143 131 -59 19 -209 23 -275 6z m198 -434 c69 -42 63 -140 -9 -174 -104
-50 -228 21 -201 115 21 71 137 103 210 59z"/>
<path d="M4065 1397 c-53 -18 -99 -42 -114 -61 -21 -25 -30 -19 -27 19 l2 35
-93 0 -93 0 0 -510 0 -510 100 0 101 0 -3 170 c-2 94 0 170 3 170 4 0 12 -7
20 -16 7 -8 36 -28 63 -42 45 -24 62 -27 146 -26 115 1 168 21 238 91 82 82
118 191 109 327 -10 155 -79 266 -203 327 -75 37 -181 48 -249 26z m120 -168
c51 -14 110 -73 124 -124 53 -191 -71 -351 -236 -305 -185 52 -190 360 -7 425
48 17 68 18 119 4z"/>
<path d="M4905 1395 c-21 -8 -59 -28 -82 -45 -24 -16 -45 -30 -46 -30 -2 0 -1
16 1 35 l4 35 -96 0 -96 0 0 -510 0 -510 100 0 100 0 0 170 0 170 44 -34 c55
-42 128 -60 215 -54 204 15 331 182 319 418 -8 141 -67 251 -170 316 -78 50
-213 67 -293 39z m128 -166 c93 -25 142 -109 135 -233 -3 -63 -8 -81 -33 -118
-58 -83 -154 -108 -247 -64 -78 37 -123 154 -99 259 15 68 68 132 126 152 49
17 69 18 118 4z"/>
<path d="M5707 1396 c-26 -7 -72 -30 -102 -50 -232 -160 -212 -556 35 -681
108 -54 259 -60 362 -13 58 27 148 101 148 123 0 6 -28 33 -61 59 l-61 48 -32
-31 c-109 -105 -294 -70 -341 65 -7 22 -11 42 -8 46 2 5 123 8 269 8 l264 0 0
43 c0 60 -25 168 -50 216 -56 111 -156 171 -294 177 -49 2 -100 -1 -129 -10z
m201 -173 c31 -23 57 -65 67 -105 l7 -28 -167 0 -167 0 6 32 c9 45 56 100 97
115 47 18 124 10 157 -14z"/>
<path d="M2282 1108 c4 -307 9 -333 65 -406 59 -78 198 -105 299 -58 28 13 60
35 71 50 29 36 36 33 31 -14 l-4 -40 98 0 98 0 0 375 0 375 -100 0 -100 0 0
-247 c0 -228 -2 -251 -20 -280 -27 -45 -62 -65 -114 -65 -55 0 -81 14 -106 55
-18 29 -20 52 -20 285 l0 252 -101 0 -101 0 4 -282z"/>
<path d="M3410 1015 l0 -375 95 0 95 0 0 375 0 375 -95 0 -95 0 0 -375z"/>
</g>
</svg>
