<svg xmlns="http://www.w3.org/2000/svg" xmlns:xlink="http://www.w3.org/1999/xlink" version="1.1" width="788.35647pt" height="391.458pt" viewBox="0 0 788.35647 391.458">
<g id="layer_1" data-name="Background">
<path transform="matrix(1,0,0,-1,-2.24055,501.893)" stroke-width=".25" stroke-linecap="butt" stroke-miterlimit="4" stroke-linejoin="miter" fill="none" stroke="#000000" d="M0 108H792V504H0Z"/>
</g>
<g id="layer_1" data-name="Layer 1">
<path transform="matrix(1,0,0,-1,-2.24055,501.893)" d="M72.8505 122.34067C73.17339 122.347179 73.44942 122.45905 73.678569 122.676319 73.907718 122.89357 74.027507 123.17718 74.03792 123.52713V130.89566C74.027507 131.2183 73.907718 131.49411 73.678569 131.7231 73.44942 131.95209 73.17339 132.0718 72.8505 132.0822H58.163995V138.64896C58.0627 142.56536 56.68862 145.84044 54.041765 148.47423 51.39491 151.108 48.083055 152.47687 44.106195 152.58081 40.221975 152.47817 36.975324 151.1067 34.366239 148.4664 31.757159 145.8261 30.401312 142.53278 30.2987 138.58641V123.52713C30.309109 123.17718 30.428797 122.89357 30.657763 122.676319 30.886729 122.45905 31.162522 122.347179 31.485144 122.34067H72.8505ZM49.047426 132.0822H39.477766V138.02355C39.506429 139.40596 39.949464 140.56557 40.80686 141.50238 41.66426 142.43918 42.764039 142.92649 44.106195 142.96427 45.543478 142.92649 46.718847 142.4392 47.632295 141.50238 48.545747 140.56557 49.017457 139.40596 49.047426 138.02355V132.0822Z" fill="#f76921"/>
<path transform="matrix(1,0,0,-1,-2.24055,501.893)" d="M52.230916 155.9634C56.44394 156.00879 60.234785 157.02121 63.60344 159.00067 66.97209 160.98014 69.64615 163.65419 71.625598 167.02288 73.60504 170.39156 74.61747 174.18245 74.66287 178.39554 74.61747 182.60938 73.60505 186.40563 71.625598 189.78432 69.64615 193.16301 66.97209 195.84709 63.60344 197.83657 60.234785 199.82604 56.44394 200.84386 52.230916 200.89003 48.01631 200.84386 44.214639 199.82604 40.825887 197.83657 37.437135 195.84709 34.742994 193.16301 32.74346 189.78432 30.743929 186.40563 29.72069 182.60938 29.673743 178.39554 29.72069 174.18245 30.743929 170.39156 32.74346 167.02288 34.742994 163.65419 37.437135 160.98014 40.825887 159.00067 44.214635 157.02121 48.01631 156.00879 52.230916 155.9634ZM52.230916 165.9549C48.69882 166.04737 45.744966 167.26903 43.369348 169.61989 40.99373 171.97074 39.75903 174.89595 39.665254 178.39554 39.75903 181.92507 40.99373 184.86849 43.369348 187.2258 45.744966 189.58312 48.69882 190.80736 52.230916 190.89852 55.730443 190.80736 58.655618 189.58312 61.006437 187.2258 63.35725 184.86849 64.578899 181.92507 64.671367 178.39554 64.578899 174.89595 63.35725 171.97074 61.00643 169.61989 58.655618 167.26903 55.730443 166.04737 52.230916 165.9549Z" fill="#f76921"/>
<path transform="matrix(1,0,0,-1,-2.24055,501.893)" d="M57.296869 207.83487C60.50127 207.8722 63.409097 208.67873 66.02035 210.25447 68.63161 211.83022 70.71521 213.9512 72.27117 216.61739 73.827129 219.28359 74.62436 222.27103 74.66287 225.57971 74.62436 228.90966 73.827129 231.91718 72.27117 234.6023 70.71521 237.2874 68.63161 239.4238 66.02035 241.0115 63.409097 242.59922 60.50127 243.41193 57.296869 243.44963H31.486119C31.163226 243.43923 30.887202 243.31954 30.658049 243.09055 30.428898 242.86157 30.309115 242.58577 30.298699 242.26313V234.58213C30.309115 234.23217 30.4289 233.94855 30.65805 233.73128 30.887202 233.51403 31.163226 233.40213 31.486119 233.39563H56.7969C59.038938 233.35134 60.898187 232.61144 62.374647 231.1759 63.85111 229.74039 64.616687 227.87499 64.671367 225.57971 64.616687 223.31702 63.85111 221.48027 62.374647 220.0695 60.898187 218.65874 59.038938 217.93186 56.7969 217.88887H31.486119C31.163226 217.88237 30.887202 217.77048 30.658049 217.5532 30.428898 217.33594 30.309115 217.05233 30.298699 216.70236V209.02136C30.309115 208.69872 30.4289 208.42292 30.65805 208.19394 30.887202 207.96497 31.163226 207.84528 31.486119 207.83487H57.296869Z" fill="#f76921"/>
<path transform="matrix(1,0,0,-1,-2.24055,501.893)" d="M72.85483 253.51926C73.176548 253.52577 73.45156 253.63765 73.67988 253.8549 73.908199 254.07218 74.02754 254.35578 74.03792 254.70574V262.13685C74.02754 262.45948 73.908199 262.73527 73.67988 262.96424 73.45156 263.1932 73.176548 263.31288 72.85483 263.32328H56.976579V267.63795L73.47751 275.95457C73.609828 276.01969 73.73436 276.13954 73.85111 276.31413 73.967868 276.48869 74.030139 276.70234 74.03792 276.95506V285.26069C74.01327 285.79667 73.81349 286.16096 73.43859 286.3535 73.06368 286.54603 72.66154 286.5356 72.23215 286.32228L56.414674 277.76728C55.295656 280.52919 53.647188 282.74858 51.46927 284.4255 49.29135 286.10243 46.742544 286.96366 43.82284 287.0092 39.992364 286.9104 36.80492 285.57804 34.26051 283.012 31.716099 280.44599 30.395495 277.23893 30.2987 273.39079V254.70574C30.309105 254.35578 30.42878 254.07218 30.657719 253.8549 30.88666 253.63765 31.162436 253.52577 31.485047 253.51926H72.85483ZM49.047426 263.32328H39.22778V272.57789C39.261877 273.89756 39.72872 275.01008 40.62832 275.91545 41.52792 276.8208 42.655706 277.29237 44.01168 277.33015 45.37815 277.29237 46.547914 276.8208 47.520967 275.91545 48.49402 275.01008 49.00284 273.89756 49.047426 272.57789V263.32328Z" fill="#f76921"/>
<path transform="matrix(1,0,0,-1,-2.24055,501.893)" d="M73.97555 309.26158C74.168209 309.35664 74.32963 309.49464 74.4598 309.6756 74.58997 309.85658 74.65767 310.07273 74.66287 310.324V310.94895C74.65767 311.20024 74.58997 311.41639 74.4598 311.59736 74.32963 311.77833 74.168209 311.91636 73.97555 312.01139L31.923607 331.63505C31.50052 331.81343 31.128167 331.8004 30.806542 331.59599 30.484915 331.39158 30.315636 331.05046 30.298699 330.57264V322.26069C30.307826 322.0055 30.383378 321.78157 30.52536 321.58888 30.667344 321.39616 30.821005 321.26597 30.986342 321.19828L53.793115 310.88648V310.51148L30.986342 300.19969C30.821005 300.132 30.667344 300.00178 30.52536 299.80909 30.383378 299.6164 30.307824 299.39247 30.298699 299.13728V290.82533C30.315636 290.3475 30.484915 290.00639 30.806542 289.80195 31.128167 289.59754 31.50052 289.58454 31.923607 289.7629L73.97555 309.26158Z" fill="#f76921"/>
<path transform="matrix(1,0,0,-1,-2.24055,501.893)" d="M52.230916 333.20137C56.44394 333.24678 60.234785 334.2592 63.60344 336.23866 66.97209 338.21809 69.64615 340.89216 71.625598 344.26084 73.60504 347.62953 74.61747 351.4204 74.66287 355.6335 74.61747 359.84733 73.60505 363.6436 71.625598 367.02229 69.64615 370.40098 66.97209 373.08506 63.60344 375.07453 60.234785 377.064 56.44394 378.08183 52.230916 378.128 48.01631 378.08183 44.214639 377.064 40.825887 375.07453 37.437135 373.08506 34.742994 370.40098 32.74346 367.02229 30.743929 363.6436 29.72069 359.84733 29.673743 355.6335 29.72069 351.4204 30.743929 347.62953 32.74346 344.26084 34.742994 340.89216 37.437135 338.21809 40.825887 336.23866 44.214635 334.2592 48.01631 333.24678 52.230916 333.20137ZM52.230916 343.19288C48.69882 343.28535 45.744966 344.507 43.369348 346.85786 40.99373 349.2087 39.75903 352.1339 39.665254 355.6335 39.75903 359.16304 40.99373 362.10646 43.369348 364.46379 45.744966 366.82109 48.69882 368.04533 52.230916 368.13648 55.730443 368.04533 58.655618 366.82109 61.006437 364.46379 63.35725 362.10646 64.578899 359.16304 64.671367 355.6335 64.578899 352.1339 63.35725 349.2087 61.00643 346.85786 58.655618 344.507 55.730443 343.28535 52.230916 343.19288Z" fill="#f76921"/>
<path transform="matrix(1,0,0,-1,-2.24055,501.893)" d="M72.850719 385.69779C73.17355 385.7082 73.449527 385.82789 73.678638 386.05686 73.907749 386.28584 74.027507 386.5616 74.03792 386.88429V394.3778C74.027507 394.70045 73.907749 394.97627 73.678638 395.20524 73.449527 395.4342 73.17355 395.5539 72.850719 395.5643H31.486102C31.163256 395.5539 30.88725 395.4342 30.658083 395.20524 30.428915 394.97627 30.30912 394.70045 30.298699 394.3778V386.88429C30.30912 386.5616 30.428915 386.28584 30.658083 386.05686 30.88725 385.82789 31.163256 385.7082 31.486102 385.69779H72.850719Z" fill="#f76921"/>
<path transform="matrix(1,0,0,-1,-2.24055,501.893)" d="M72.85483 406.32139C73.176548 406.32789 73.45156 406.43977 73.67988 406.65705 73.908199 406.8743 74.02754 407.1579 74.03792 407.50788V414.93898C74.02754 415.2616 73.908199 415.53739 73.67988 415.76637 73.45156 415.99534 73.176548 416.115 72.85483 416.1254H56.976579V420.44007L73.47751 428.75669C73.609828 428.8218 73.73436 428.94166 73.85111 429.11625 73.967868 429.2908 74.030139 429.50447 74.03792 429.75718V438.0628C74.01327 438.5988 73.81349 438.96308 73.43859 439.1556 73.06368 439.34815 72.66154 439.33775 72.23215 439.1244L56.414674 430.5694C55.295656 433.3313 53.647188 435.5507 51.46927 437.22764 49.29135 438.90455 46.742544 439.76579 43.82284 439.8113 39.992364 439.71253 36.80492 438.38017 34.26051 435.81413 31.716099 433.2481 30.395495 430.04106 30.2987 426.1929V407.50788C30.309105 407.1579 30.42878 406.8743 30.657719 406.65705 30.88666 406.43977 31.162436 406.32789 31.485047 406.32139H72.85483ZM49.047426 416.1254H39.22778V425.38C39.261877 426.69969 39.72872 427.81217 40.62832 428.71757 41.52792 429.62294 42.655706 430.09449 44.01168 430.13227 45.37815 430.09449 46.547914 429.62294 47.520967 428.71757 48.49402 427.81217 49.00284 426.69969 49.047426 425.38V416.1254Z" fill="#f76921"/>
<path transform="matrix(1,0,0,-1,-2.24055,501.893)" d="M72.850719 448.19355C73.17355 448.20396 73.449527 448.32365 73.678638 448.5526 73.907749 448.7816 74.027507 449.05738 74.03792 449.38V456.87358C74.027507 457.1962 73.907749 457.47203 73.678638 457.701 73.449527 457.92997 73.17355 458.04966 72.850719 458.06007H31.486102C31.163256 458.04966 30.88725 457.92997 30.658083 457.701 30.428915 457.47203 30.30912 457.1962 30.298699 456.87358V449.38C30.30912 449.05738 30.428915 448.7816 30.658083 448.5526 30.88725 448.32365 31.163256 448.20396 31.486102 448.19355H72.850719Z" fill="#f76921"/>
<path transform="matrix(1,0,0,-1,-2.24055,501.893)" d="M72.85151 468.81715C73.17413 468.82365 73.44992 468.93553 73.67887 469.15278 73.90783 469.37007 74.02751 469.65367 74.03792 470.0036V495.87C74.02751 496.2202 73.90783 496.50407 73.67887 496.7215 73.44992 496.93894 73.17413 497.0509 72.85151 497.0574H66.045299C65.72268 497.0509 65.446887 496.93894 65.21792 496.7215 64.98895 496.50407 64.86926 496.2202 64.85886 495.87V478.55867H56.414117V492.8077C56.40761 493.13059 56.295736 493.40663 56.078489 493.63578 55.86124 493.86494 55.577646 493.9847 55.22771 493.99513H48.421495C48.098875 493.9847 47.82308 493.86494 47.594114 493.63578 47.365148 493.40663 47.245458 493.13059 47.23505 492.8077V478.55867H39.477766V495.87C39.467359 496.2202 39.347677 496.50407 39.11872 496.7215 38.889768 496.93894 38.61398 497.0509 38.29136 497.0574H31.485144C31.162524 497.0509 30.88673 496.93894 30.657763 496.7215 30.428797 496.50407 30.309109 496.2202 30.2987 495.87V470.0036C30.309109 469.65367 30.428797 469.37007 30.657763 469.15278 30.886729 468.93553 31.162522 468.82365 31.485144 468.81715H72.85151Z" fill="#f76921"/>
<path transform="matrix(1,0,0,-1,-2.24055,501.893)" d="M649.5468 495.9297 544.0516 452.79905C544.0516 452.79905 543.1883 454.55314 542.4301 455.56294 541.2602 457.12117 539.6882 457.33647 538.56069 456.11573 538.0416 455.55378 537.6933 454.71046 537.4551 453.9046 536.88949 451.99128 536.7217 450.01737 535.981 449.11384 534.7371 447.5965 531.09799 446.82246 528.79489 445.2444 527.2233 444.16758 526.01937 442.1199 525.84677 439.82716 525.75027 438.54588 525.84677 436.5842 525.84677 436.5842 525.84677 436.5842 522.28579 438.08515 520.6138 438.4268 518.0542 438.94978 515.0907 436.01637 513.1581 432.74845 512.2363 431.18977 511.5548 429.53868 510.58418 428.8776 509.89326 428.40705 509.02565 428.36317 508.26316 428.04899 505.8701 427.06288 502.72489 422.92564 500.7874 422.39619 498.2656 421.70707 492.68 422.58045 492.68 422.58045 492.68 422.58045 492.71327 425.0503 492.68 426.273 492.65586 427.15986 492.59669 427.3906 492.1272 428.10826 491.43479 429.16664 489.8498 431.2841 489.8498 431.2841 489.8498 431.2841 496.67854 431.9565 498.83515 432.5764 499.424 432.74565 499.66456 432.91099 499.86613 433.26753 500.98103 435.23957 501.58186 444.0235 502.72056 445.63948 503.37788 446.5723 505.44087 447.4369 505.20967 448.56108 504.96488 449.75114 503.03056 451.69569 503.03056 451.69569 503.03056 451.69569 506.70188 455.05744 508.21244 456.95014 510.60523 459.94828 510.52934 464.67274 507.42079 466.61854 506.22276 467.3684 502.20317 468.211 500.64 468.27687 498.8171 468.35368 497.17286 467.91596 495.87138 468.27687 494.86775 468.55519 493.78453 469.5972 492.86427 470.85649 488.75273 476.48268 485.3616 483.32447 479.7818 480.62226 476.7652 479.16139 468.86674 470.91993 467.13423 470.48799 465.06706 469.97257 463.03153 470.9212 460.61143 470.48799 457.16874 469.87168 453.76484 468.17396 454.35398 465.4024 454.7982 463.31254 456.99867 460.22795 457.8549 457.58979 459.36695 452.931 458.14915 448.71305 455.27528 443.95457 452.7784 439.82038 451.15498 437.173 454.32637 433.38804 455.41346 432.09065 456.8806 431.42878 457.0385 430.47349 457.22447 429.34855 455.5947 427.81669 455.091 426.1477 454.09196 422.83757 457.57478 417.8355 458.40769 414.9742 459.0846 412.64875 457.51518 397.81455 457.67063 390.37187 457.76579 385.81819 459.03575 382.21357 459.1447 374.5992 459.16517 373.16999 459.1447 371.59947 459.1447 371.59947L451.31999 369.21839C451.31999 369.21839 452.50117 372.87245 453.2484 375.85218 454.89988 382.4377 454.62995 399.43107 452.69563 406.3656 450.31376 414.9046 446.26567 421.40019 440.21797 424.56156 435.48045 427.03804 425.74989 431.15 425.74989 431.15 425.74989 431.15 426.6842 432.7111 426.715 433.70973 426.74638 434.72645 425.84129 435.1602 425.46125 435.80915 424.14064 438.0642 428.84715 447.00105 429.4789 449.11384 432.04194 457.68525 425.7132 468.2065 418.23905 472.6991 413.55268 475.516 404.26557 476.97694 400.1816 474.72596 397.95216 473.49714 393.7316 468.86555 392.4427 466.06575 391.74296 464.5457 390.96864 462.38056 390.96864 462.38056 390.96864 462.38056 387.26615 462.5686 384.93965 462.38056 380.99009 462.06129 376.35957 459.13258 377.3334 455.6219 377.55809 454.81193 378.1007 454.28398 379.176 453.72035 382.29679 452.08454 389.90425 450.1483 389.90425 450.1483 389.90425 450.1483 388.0012 448.05604 386.91493 446.90275 385.5937 445.5 385.28187 444.86366 386.91493 443.77033 387.74394 443.21528 388.70967 443.20964 389.31028 442.4805 390.2502 441.33946 390.1431 432.63044 391.15287 431.0564 391.70048 430.2028 394.96 428.83406 397.74937 428.84529 401.07676 428.85868 401.56169 429.64793 401.34803 427.7785 401.29325 427.29917 401.18229 427.1646 400.23847 426.4329 396.15779 423.26933 391.35023 419.80149 388.2047 416.68415 380.18376 408.7349 380.84425 407.46775 374.38526 403.78596 370.34596 401.48347 355.44544 393.75288 349.81239 394.9415 348.13075 395.29634 346.03627 396.66474 343.9824 397.88966 341.5173 399.3598 333.68254 402.51713 331.637 402.86466 329.524 403.22367 327.56724 403.20967 325.74067 403.9702 322.71208 405.23127 319.7127 409.04866 316.52769 410.60359 315.08326 411.30873 313.56214 411.56459 311.88435 411.52488 309.9127 411.47819 307.72465 411.02333 305.4721 411.15635 299.96839 411.48139 299.02076 412.70567 296.40199 410.30818 295.6743 409.64198 295.46678 409.60737 294.3266 409.96199 262.9579 419.71888 258.5617 422.09098 231.39969 425.5286 198.926 429.63847 180.885 429.38514 148.48282 424.6073 144.86409 424.0737 141.74213 423.55323 136.6902 422.2119 131.01013 420.70387 122.89032 418.1582 122.89032 418.1582 122.89032 418.1582 124.82356 418.1495 126.328319 418.3418 129.96506 418.80647 131.09893 420.44505 134.8476 420.92213 136.01142 421.07023 137.42723 421.10636 137.42723 421.10636 137.42723 421.10636 135.37596 415.6963 134.29482 411.89338 129.07913 393.54713 137.46906 373.3283 151.06246 361.22196 181.27364 334.31575 243.97205 335.36213 281.51835 339.4793 321.67594 343.88285 393.17973 353.6673 393.17973 353.6673V344.4543H512.2115C512.2115 344.4543 513.29617 349.35957 513.6856 354.69917 514.051 359.70896 511.52479 382.9627 511.52479 382.9627 511.52479 382.9627 537.11489 386.94786 551.82736 388.30815 582.2537 391.12135 629.63388 388.5546 654.46 376.69978 674.85177 366.9625 696.39236 346.69499 691.4962 322.34315 688.28378 306.36509 676.60379 296.7143 662.56747 291.3875 659.61776 290.2681 652.4025 288.63887 651.1434 288.8079 649.6076 289.01405 646.6911 290.7573 643.77297 292.12458 642.1785 292.8716 627.4932 295.60917 625.98086 295.44123 621.84896 294.98249 616.13406 294.6599 615.27169 295.07273 612.44186 296.42738 604.7418 303.70375 604.7418 303.70375L599.5286 300.50859C599.5286 300.50859 601.86587 298.19657 602.4988 297.28385 602.8054 296.8416 602.2615 296.8416 601.3195 297.28385 599.9789 297.91325 597.59219 299.19529 597.59219 299.19529L581.8295 280.9554 589.62417 279.5799C589.62417 279.5799 581.51089 271.0585 579.28207 270.0134 577.9398 269.384 574.7772 270.7929 571.0272 270.75044 569.3769 270.73176 563.9131 269.71385 561.59317 268.72358 559.9575 268.02543 557.47799 266.70713 557.47799 266.70713 557.47799 266.70713 561.19369 263.8588 563.65689 263.38005 565.95028 262.9343 572.7777 264.6016 572.7777 264.6016 572.7777 264.6016 569.3575 262.44068 568.04226 261.53746 567.35507 261.06556 567.24246 260.93696 567.3862 260.61616 567.69918 259.91835 569.2254 258.311 569.8848 256.7467 570.41677 255.48477 570.6735 253.00551 570.43759 251.44002 570.08816 249.12126 568.81118 245.0969 568.81118 245.0969 568.81118 245.0969 572.9186 246.65435 575.22836 247.90222 577.4634 249.10974 582.3942 253.40186 583.52 255.64113 584.2516 257.09623 584.8099 258.9578 584.8099 258.9578H589.23208C589.23208 258.9578 588.92379 257.10926 589.1797 256.25987 589.3264 255.773 590.14956 255.58588 590.77999 255.89606 591.2863 256.14518 591.63388 256.40336 591.91268 256.228 592.17129 256.06535 592.1979 255.56673 592.5715 255.07013 593.5947 253.70987 599.17019 251.70142 599.17019 251.70142L599.5506 259.82017C599.5506 259.82017 603.1321 260.14729 606.73678 260.8004 611.96377 261.7475 617.23959 263.38005 617.23959 263.38005L616.134 260.30659 626.4248 254.41349C626.4248 254.41349 627.0254 258.91603 626.82107 261.42689 626.6994 262.92216 626.2923 263.7111 626.08407 264.92784 626.02859 265.25187 625.9872 265.60624 626.02597 265.94544 626.07827 266.40269 626.20547 266.5071 627.298 266.98957 634.62869 270.2267 645.60446 274.97825 650.22207 282.17454 651.26449 283.7991 651.97018 285.6645 652.98599 286.4125 653.84536 287.04536 657.3452 287.38825 659.9878 287.8866 669.6676 289.71205 681.92636 299.47926 686.70547 306.1283 695.23446 317.99424 697.1532 331.40065 692.049 343.7173 682.1439 367.6187 656.3276 381.6412 630.87478 387.0183 616.69076 390.0148 596.63748 391.68418 582.525 391.62483 565.33126 391.55247 540.68936 390.1126 540.68936 390.1126 540.68936 390.1126 543.00479 392.21739 544.457 393.83595 546.47427 396.0843 549.0156 400.9723 549.98477 403.04893 551.06967 405.37358 555.3146 421.11579 555.16708 422.2672 555.0993 422.79615 554.962 423.19923 554.407 423.686 552.20169 425.62034 549.81619 426.4369 551.2746 427.55546 552.8143 428.7364 556.29446 428.13414 557.4487 429.21775 558.5274 430.23033 560.6684 440.0752 560.6684 440.0752 560.6684 440.0752 564.2857 440.6422 566.0154 441.19068 568.3055 441.91685 570.9517 445.17573 570.8061 447.34495 570.7041 448.86387 569.52078 450.548 570.0691 451.45027 570.2685 451.77848 570.69717 452.0032 571.06948 452.19065 571.5714 452.4433 571.74978 452.52214 572.85299 452.97898 587.00009 458.83763 615.11917 470.36088 615.1652 470.86045 615.2697 471.99345 615.1786 472.20866 616.134 473.25187 616.8418 474.02479 643.7712 484.85264 657.6533 490.49986 658.75936 490.94978 658.8858 491.03096 658.9179 491.31147 659.0002 492.03144 658.4699 493.4026 658.32949 493.7047 657.4337 495.6317 655.89529 496.22715 653.04049 496.8375 651.59426 497.14674 651.0283 497.18943 650.822 496.57276 650.77957 496.44584 650.65206 496.38154 649.5468 495.9297ZM544.69076 450.54304C543.80307 450.4416 543.7515 450.48289 543.85739 451.4089 543.8995 451.7778 544.0269 451.86918 545.1314 452.32273L651.2908 495.9158 654.776 495.38774 546.31167 451.08955C545.20626 450.6381 545.0442 450.58345 544.69076 450.54304ZM658.24087 491.28407 615.092 473.49665 612.732 477.34559 655.218 494.31809C656.32687 494.76106 656.49227 494.7778 656.8725 494.4856 657.1546 494.2688 657.3884 494.11973 657.5924 493.7047 657.967 492.94267 658.24087 491.28407 658.24087 491.28407ZM499.68186 446.90275 500.8544 443.61958C500.8544 443.61958 499.25093 443.01548 498.94483 442.66477 498.6325 442.30693 499.6707 442.2128 500.191 441.73283 500.65437 441.30543 500.7071 440.57209 500.41889 440.14408 500.04649 439.59104 499.10484 439.54783 498.77366 438.98649 498.36878 438.3002 498.87626 436.83949 498.69377 435.8077 498.1257 432.59635 491.71864 432.62977 488.62629 433.82029 487.64024 434.19993 486.77708 434.6052 485.6781 435.66288 483.73576 437.5323 481.05668 441.43968 481.05668 441.43968 481.05668 441.43968 482.12629 438.67924 482.36146 437.39494 482.69773 435.55827 481.4541 434.77009 479.8555 435.1101 477.87098 435.53224 476.4953 437.18119 476.83366 439.53236 476.91957 440.1292 477.11164 440.78553 477.3864 441.37495 478.08903 442.88185 479.3323 443.95133 479.52317 445.3405 479.75697 447.04206 478.4118 449.22325 478.67625 450.8385 479.02293 452.9561 482.05827 454.5442 483.8355 452.9833 484.82337 452.11573 486.2309 449.8509 486.2309 449.8509 486.2309 449.8509 487.34907 452.34339 488.44203 453.53608 489.0301 454.17784 491.04325 455.24699 492.16407 455.37867 493.10169 455.48884 494.52259 455.37867 494.52259 455.37867 494.52259 455.37867 493.09983 454.04353 492.68 453.3518 492.51417 453.07859 492.51417 452.81507 492.68 452.79905 492.9508 452.7729 493.54048 453.1874 494.07118 453.27873 494.75834 453.3969 495.34663 452.9732 496.4314 453.06428 497.6386 453.16563 499.46076 453.9046 499.46076 453.9046 499.46076 453.9046 502.91383 450.7967 503.73558 449.23915 504.31724 448.13667 503.43699 446.82179 501.78388 446.79719 500.9898 446.78535 499.68186 446.90275 499.68186 446.90275ZM542.7093 442.06278 561.15658 445.89579C562.32559 446.1387 562.4944 446.1142 562.845 445.65077 563.77218 444.42515 563.7446 443.41065 562.33016 442.66477 560.24276 441.564 554.9598 439.90086 554.9598 439.90086H555.3283V439.53236C555.3283 439.53236 557.8222 440.02037 558.8585 439.6855 559.3949 439.51219 559.5947 438.82688 559.382 438.27937 559.23776 437.90797 558.987 437.57304 558.53286 437.2668 557.7648 436.74897 556.4147 436.31336 556.3767 435.98823 556.3544 435.79664 556.78768 435.6434 557.1382 435.3355 558.4667 434.1688 557.5816 431.1127 556.43386 430.1351 555.2221 429.103 551.921 428.90763 550.169 428.10826 548.92959 427.54273 548.46548 426.6749 547.2209 426.63417 545.3807 426.57395 538.3764 430.21406 538.3764 430.21406L537.0096 447.06187C536.913 448.25196 536.9361 448.51268 537.24026 449.6692 538.09677 452.92613 539.04879 456.3553 541.0813 455.37867 541.91586 454.9777 542.67709 453.4103 542.79867 452.3568 543.03347 450.3223 541.63137 448.14137 542.0616 444.91273 542.2382 443.58705 542.7093 442.06278 542.7093 442.06278ZM392.27519 444.69163H390.25337C389.34489 444.69163 389.2011 444.70536 388.8155 444.82914 387.6063 445.21723 387.25758 445.9913 387.9842 446.9732 388.18269 447.24147 388.2989 447.3647 389.1464 448.20576L393.41419 452.44093C393.41419 452.44093 394.19093 451.55006 394.79853 450.972 395.42417 450.3768 395.87049 450.1133 396.40937 450.10926 397.0693 450.10429 397.868 450.48844 398.75605 450.3238 399.30397 450.2222 399.8859 449.91166 400.04447 450.07804 400.13169 450.16957 400.09086 450.40538 399.97554 450.6317 399.7627 451.04957 398.2226 452.34086 398.70753 452.79905 399.02354 453.09764 401.4706 452.31095 401.65568 452.24626 403.183 451.7124 404.90916 450.75025 405.52516 449.11384 406.59703 446.2663 406.53794 447.1841 409.02607 449.66664 410.40257 451.03999 412.12358 450.8989 413.26405 449.11384 414.2084 447.63575 414.01564 445.1146 412.89555 443.58607 412.06886 442.45793 410.50016 441.0064 410.50016 441.0064 410.50016 441.0064 410.98707 440.9548 411.38459 441.0064 412.38825 441.13676 412.82234 441.92518 413.4015 442.2824 414.4516 442.93016 416.63877 441.79188 417.13349 440.76319 417.75166 439.47795 416.61653 436.16667 415.8437 435.1101 414.82035 433.7111 410.41593 429.96156 408.9008 430.68788 408.13084 431.05696 407.55583 432.1742 407.552 433.26753 407.54795 434.42323 407.9205 436.21568 407.9205 436.21568 407.9205 436.21568 405.34269 432.63838 403.4983 431.24067 401.50288 429.72853 393.2292 429.80677 392.69544 432.85444 392.57206 433.55906 392.81996 434.40419 392.5587 435.17607 392.14735 436.39143 390.3572 437.5818 390.96864 438.55207 391.31669 439.1045 392.491 439.37178 392.54988 439.7624 392.59864 440.0861 391.8815 440.49449 391.53166 440.97535 391.3172 441.27009 391.24076 441.59205 391.33714 442.11198 391.51429 443.06748 392.27519 444.69163 392.27519 444.69163ZM482.72996 446.5342 482.36146 447.86088 483.83625 448.54914C484.49894 448.85838 484.57426 448.90748 484.5894 449.03999 484.74226 450.3774 482.46788 450.78837 481.8676 450.58793 480.78993 450.22807 480.35893 448.18409 481.44017 447.27125 481.88713 446.8939 482.72996 446.5342 482.72996 446.5342ZM566.5202 446.70127C566.3652 446.24195 566.2144 445.89436 565.8311 445.42866 565.45468 444.97129 564.8539 444.40003 564.8539 444.40003 564.8539 444.40003 563.8086 446.2393 563.4357 446.90275 563.3027 447.1395 563.2552 447.2265 563.0672 447.27125 562.2782 447.45909 559.0135 446.90275 559.0135 446.90275 559.0135 446.90275 559.1858 447.18876 559.382 447.4555 559.9166 448.1823 564.3474 450.1842 565.49948 450.2194 565.93978 450.23286 566.38388 450.2194 566.38388 450.2194V449.8509H566.7524V448.20893C566.7524 447.47117 566.7292 447.32038 566.5202 446.70127ZM408.28904 445.79719H408.65757V445.42866H410.13163V443.95457C410.13163 443.95457 410.46424 443.92594 410.72126 443.95457 411.7789 444.0724 412.26747 445.96189 411.9742 446.65953 411.77119 447.14256 410.59489 448.02449 410.13163 448.00828 409.85935 447.99879 408.39546 447.2013 408.28904 446.6816 408.21778 446.3336 408.28904 445.79719 408.28904 445.79719ZM525.8866 410.0242C525.8866 410.0242 522.065 412.8196 518.10787 415.21006 515.23727 416.94413 512.29537 418.46507 512.29537 418.46507 512.29537 418.46507 522.1388 429.2938 523.4882 429.5823 524.8378 429.87089 525.6717 428.87547 527.13656 428.84529 530.89828 428.76774 534.09786 432.24269 533.2171 435.72923 532.8487 437.1877 531.49258 439.09965 529.90048 440.0851 528.83029 440.74754 527.25558 441.45167 527.25558 441.45167 527.25558 441.45167 529.3876 443.6679 530.6375 444.8759 531.67379 445.87739 532.10379 446.1858 533.58566 446.71849 534.4937 447.0449 535.79678 447.4555 535.79678 447.4555 535.79678 447.4555 535.67318 444.78288 535.79678 442.5542 535.98007 439.24964 537.7217 434.28663 537.2708 432.27989 536.8697 430.4942 535.00167 428.47529 533.95419 426.4499 532.15798 422.97676 531.8271 417.9787 530.0847 415.21006 528.53469 412.747 525.8866 410.0242 525.8866 410.0242ZM522.5116 430.16517 515.0375 422.4419C515.0375 422.4419 512.86 423.5466 511.843 424.23878 510.3938 425.22514 511.1742 426.5884 512.0273 428.84529 512.5979 430.35499 512.98507 431.4399 514.23837 432.899 516.1453 435.11906 520.0576 438.20527 520.0576 438.20527L528.00717 433.73368C529.0478 433.1483 529.2043 433.05189 529.5722 432.76945 530.7781 431.84388 530.4169 431.35353 529.1634 430.5036 527.71389 429.52076 526.5582 429.85618 524.74118 430.5036 523.50827 430.94294 522.2022 431.4316 521.4245 432.34623 521.3626 432.419 519.5919 435.60255 518.84487 434.74159 518.5502 434.40196 519.31149 433.03746 519.7662 432.53047 520.7001 431.48927 522.5116 430.16517 522.5116 430.16517ZM420.08168 427.73973 420.8187 430.31938 409.72969 414.90367 406.11848 420.00028C406.11848 420.00028 408.23173 423.11048 410.2044 424.5287 410.7257 424.90348 411.23719 425.1601 411.23719 425.1601L410.3653 422.18418C410.3653 422.18418 418.46156 432.97627 421.92427 436.0314 422.17076 436.24888 422.39375 436.42716 422.6699 436.55879 423.0421 436.7362 423.1432 436.7072 423.68049 436.26893 425.3319 434.92179 425.46418 433.11936 425.24095 432.40519 424.95256 431.48265 422.51646 429.0111 421.18724 428.29249 420.6603 428.00764 420.08168 427.73973 420.08168 427.73973ZM481.7553 415.41908C481.7553 415.41908 484.14088 417.15083 486.04664 418.1582 494.86814 422.8213 512.44 416.3677 519.5819 410.60359 522.11318 408.5606 525.4295 405.5261 527.68936 404.33876 530.4463 402.89018 534.3547 401.4504 534.3547 401.4504 534.3547 401.4504 532.58676 403.5272 531.5588 404.8915 528.90737 408.41059 530.63436 411.81437 533.7699 418.89527 535.88327 423.6676 539.1754 427.9243 543.9042 424.6073 547.9169 421.79258 545.8255 410.79194 544.08847 405.99708 540.3409 395.65248 535.8716 393.29804 525.4782 395.49427 524.11996 395.78129 522.9036 396.11705 521.4245 396.96836 519.1591 398.2722 516.2772 400.78544 515.5282 400.46928 515.3024 400.374 515.2704 400.0216 515.5282 399.58485 516.13296 398.56016 518.36386 396.64906 518.4763 395.12574 518.49649 394.85383 518.4763 394.57298 518.4763 394.57298 518.4763 394.57298 502.36726 395.8503 495.07536 397.52113 492.3749 398.1399 489.86408 398.88059 489.86408 398.88059L507.6291 384.7877 463.19844 372.83033C463.19844 372.83033 467.71324 389.2582 467.98918 393.8212 468.29283 398.8415 467.62068 403.41743 467.62068 403.41743 467.62068 403.41743 465.55574 391.7709 464.304 389.78224 463.18586 388.0058 461.70246 386.9639 461.70246 386.9639 461.70246 386.9639 462.35447 391.3655 462.4614 395.2363 462.8495 409.28675 457.19248 413.75776 465.77809 419.26377 467.0419 420.07429 468.9006 421.18534 468.9006 421.18534 468.9006 421.18534 465.61054 420.66258 463.29057 420.36933 459.71058 419.9168 456.1717 420.17765 456.9336 423.24378 458.83644 430.90129 471.1514 432.45024 477.9392 430.87214 480.51927 430.2723 484.52708 428.36369 483.8355 425.77183 483.70237 425.27275 483.40196 424.9562 482.72996 424.6073 481.23335 423.83024 477.89366 422.8926 477.89366 422.8926L484.94108 421.8434 481.7553 415.41908ZM441.01139 422.88719C441.01139 422.88719 437.4834 420.83763 434.63819 418.89527 432.8158 417.65119 423.94056 408.49858 422.84556 406.7341 421.07365 403.8789 418.74235 399.0561 419.3446 395.0889 420.13319 389.8945 421.79304 389.0024 420.08168 387.38685 417.29853 384.75953 413.11723 382.01509 411.16349 382.41184 405.9529 383.4699 404.86274 390.39485 405.34089 394.70564 406.48439 405.0152 414.82493 419.44874 422.6613 425.71287 424.87379 427.48146 427.7618 429.54029 427.7618 429.54029 427.7618 429.54029 437.56986 425.97035 439.6132 424.23878 440.37736 423.59123 441.01139 422.88719 441.01139 422.88719ZM198.23294 427.0027V427.3712H199.70703V427.0027H198.23294ZM400.94343 417.05265H400.5501V417.42118H400.1816V419.58424C400.1816 420.55616 400.18916 420.76676 400.25706 421.6903 400.3074 422.37544 400.52223 423.04594 400.73439 423.686 401.34 425.51319 402.07423 428.6094 403.31404 427.0027 404.67466 425.23936 405.3662 421.94389 404.74449 420.74848 404.29765 419.88935 403.0787 418.80088 402.12709 417.94288 401.2385 417.14167 401.12013 417.05265 400.94343 417.05265ZM213.34224 426.63417V426.26564H208.18297L207.81446 427.0027 213.34224 426.63417ZM141.48096 422.43305C141.48096 422.43305 158.45607 425.09269 172.28919 425.89714 184.04541 426.58079 195.6533 426.26564 195.6533 426.26564 195.6533 426.26564 195.48012 425.97578 195.28479 425.71287 194.86891 425.15306 186.83126 423.14366 184.96625 423.1332 179.7686 423.1042 166.92778 421.70613 154.60025 420.36933 152.67989 420.16108 141.5195 421.54048 141.48096 421.9908 141.46283 422.20249 141.48096 422.43305 141.48096 422.43305ZM222.1867 425.89714V425.5286H215.55336L215.18485 426.26564H219.47809C220.67209 426.26564 220.82334 426.25489 220.99044 426.15806 221.11441 426.08625 221.2189 426.0459 221.39162 426.00965 221.68843 425.94737 222.1867 425.89714 222.1867 425.89714ZM288.1517 408.2082C288.1517 408.2082 259.25953 411.60087 248.3516 413.92024 246.31436 414.35343 217.51988 421.5407 212.97373 424.23878 211.85594 424.90217 210.72219 425.66477 210.72219 425.66477 210.72219 425.66477 221.8781 424.55024 230.4784 423.31748 245.31032 421.19154 253.40456 418.407 264.56645 416.68415 267.2085 416.27635 286.85017 409.7819 287.41465 409.1295 287.7999 408.68424 288.1517 408.2082 288.1517 408.2082ZM259.8159 419.6323H255.27976L227.59658 424.79158H222.92375L222.55522 425.5286C222.55522 425.5286 229.81497 425.08506 237.2223 424.05455 248.35248 422.50605 259.8159 419.6323 259.8159 419.6323ZM307.22825 394.3822 315.3243 357.17478C315.5782 356.00807 315.6553 355.8169 316.0955 355.2631 318.81068 351.84724 324.2169 352.8952 327.95179 354.2201 332.30134 355.763 335.69654 358.68403 340.2466 363.212 341.98634 364.94328 343.99443 366.45567 344.9037 366.5655 346.53013 366.7619 348.48124 365.717 350.6526 365.45994 354.0077 365.0627 357.33494 367.03977 359.09169 369.51365 360.68205 371.7532 360.90266 373.95896 362.09883 375.04145 362.53443 375.43565 369.0235 374.67546 369.963 374.12016 373.3188 372.13667 377.9233 367.08866 381.50505 366.5655 383.1501 366.3252 385.66258 367.07798 387.40873 367.30253 388.09373 367.39064 391.18684 365.42109 391.45997 364.7229 392.5311 361.98509 393.12617 356.6344 393.12617 356.6344 393.12617 356.6344 387.52296 355.5283 382.21629 354.5272 375.5291 353.26564 297.03984 343.68745 280.04426 342.05894 249.00444 339.08476 239.31111 337.87318 211.13112 341.69044 179.56375 345.96656 150.60713 353.8463 138.34854 383.5174 134.73639 392.2603 133.49637 406.2901 138.34854 416.3156 139.00499 417.67198 139.88158 419.26377 139.88158 419.26377 139.88158 419.26377 148.77658 418.35987 154.74765 417.97395 170.10034 416.98173 182.1386 420.57353 203.26761 424.5464 204.44109 424.76704 204.69713 424.74897 205.82794 424.3655 242.74228 411.8482 249.37287 409.728 288.88874 405.44429 291.60765 405.14955 297.23374 403.5901 297.93104 402.9379 299.0919 401.85218 300.3485 398.65855 302.89988 398.39845 303.4887 398.3384 304.03657 398.4638 304.54609 398.2568 305.17646 398.00074 305.74815 397.23585 306.22779 396.61235 306.87434 395.7719 306.9744 395.5489 307.22825 394.3822ZM302.2369 406.07597 300.46025 404.8915 260.51274 419.26377 302.2369 406.07597ZM402.0242 398.62669H401.65568L399.81309 405.62855H399.07606C399.07606 405.62855 399.055 399.8135 399.07606 396.19447 399.09739 392.52479 399.18434 391.0182 399.99736 387.5711 400.7213 384.50157 402.0242 379.83219 402.0242 379.83219 402.0242 379.83219 400.60246 379.72178 399.5625 379.83219 396.1539 380.1941 393.19554 385.48106 392.25843 388.30815 389.98237 395.17475 388.83244 409.53123 392.99549 415.94709 394.6716 418.53025 396.5064 420.02558 398.33903 418.711 398.547 418.5618 398.73747 418.40193 398.89179 418.1582 400.18455 416.11683 399.12879 413.91639 400.574 415.0474 401.306 415.62025 402.7858 416.9462 402.7858 416.9462 402.7858 416.9462 402.01176 410.74079 401.921 404.8869 401.87165 401.70487 402.0242 398.62669 402.0242 398.62669ZM326.39637 402.36357C326.39637 402.36357 325.80049 401.75364 325.37217 401.39057 323.07023 399.43934 316.33393 402.33946 314.66307 404.65599 314.24949 405.22935 314.07569 405.81117 313.57954 406.18135 312.37327 407.08128 309.26155 406.73014 307.85658 407.0913 307.6164 407.15309 307.4261 407.23564 307.22966 407.52894 306.8875 408.03974 306.5268 409.1897 306.5268 409.1897 306.5268 409.1897 303.24317 407.57698 301.4184 407.47117 300.14668 407.3974 297.0343 408.41328 297.7332 409.80757 298.06105 410.4616 298.95274 410.64714 299.9443 410.7878 302.14396 411.09989 313.76579 410.4081 315.42213 409.86653 316.0985 409.64537 316.677 409.39643 317.44898 408.94523 320.45549 407.18809 326.39637 402.36357 326.39637 402.36357ZM405.21806 372.4004 406.15803 367.23045C406.15803 367.23045 402.9603 369.0031 401.28718 370.43495 400.25578 371.3176 398.50959 373.5934 398.33903 374.79084 398.17884 375.91517 398.33903 377.74638 398.33903 377.74638L424.41069 379.38069C425.60234 379.45536 425.76405 379.44218 426.02787 379.24855 427.17845 378.40406 427.24787 376.6803 427.08354 376.0217 426.4675 373.55308 423.18257 367.4103 423.18257 367.4103 423.18257 367.4103 425.9668 371.38279 427.58848 373.64955 429.1265 375.79945 431.51298 377.5323 433.34837 377.25257 435.30836 376.9538 439.24467 374.6729 439.24467 374.6729 439.24467 374.6729 438.0444 376.14643 437.2178 377.62107 436.1102 379.59709 434.88194 385.8241 435.19096 387.7185 435.6023 390.24018 438.1391 396.04707 438.1391 396.04707H437.74583C437.56913 396.04707 437.47483 395.93708 436.80293 394.9473 436.0476 393.8347 435.18675 392.73597 434.82243 391.44056 434.47557 390.20713 434.57887 388.79539 434.22477 388.6657 433.17643 388.2818 432.3596 392.4715 432.2428 393.83595 431.7788 399.25657 435.14637 409.0192 441.8243 410.7878 444.59257 411.521 448.65666 405.62745 449.74748 402.31187 450.40184 400.32295 450.80287 397.1959 449.01045 395.67854 448.00144 394.82438 446.24653 394.02018 446.24653 394.02018 446.24653 394.02018 448.44334 389.7107 449.37895 386.83406 451.2089 381.2078 450.13154 370.63468 446.61506 368.22383 445.5895 367.52073 428.8301 363.46604 426.05168 363.2488 421.02195 362.8556 412.6421 365.33085 407.9205 369.6979 406.73417 370.79518 405.21806 372.4004 405.21806 372.4004ZM353.55348 389.50895C353.55348 389.50895 355.54039 391.32316 357.43336 392.91465 358.4269 393.74995 373.88993 399.4197 374.01673 398.9952 374.5609 397.1734 373.12757 391.16395 373.12757 391.16395 373.12757 391.16395 375.58763 396.91505 377.14915 400.10078 378.4267 402.70719 379.1182 403.61653 381.38713 406.18135 382.68254 407.6457 384.49693 409.6594 384.49693 409.6594 384.49693 409.6594 385.63627 408.7504 386.36213 407.83967 388.75279 404.84007 387.62837 394.606 385.44084 391.80909 380.14338 385.03587 366.43794 385.83393 358.17039 388.12388 356.05848 388.70884 353.55348 389.50895 353.55348 389.50895ZM299.5758 401.20634V403.0105C299.5758 403.82118 299.6373 403.9304 300.1908 404.10276 300.6014 404.23063 300.96357 404.4506 301.33396 404.68733 302.69715 405.5585 304.1723 406.65684 305.3247 407.10264 305.75968 407.2709 306.14866 407.3462 306.20915 407.10264 306.25627 406.91294 306.1041 406.52983 306.20915 406.3656 306.24668 406.30693 306.31706 406.27619 306.3596 406.21446 306.92314 405.39665 305.0041 403.8266 304.73509 403.60169 303.7117 402.74617 301.7867 401.3111 300.75508 401.20634 300.1963 401.14958 299.5758 401.20634 299.5758 401.20634ZM302.15544 399.3637V399.73225H301.7869V400.32218C301.7869 400.58723 301.90238 400.68263 302.94148 401.27589 304.25587 402.0263 306.5435 403.59413 307.37696 404.82023 307.8715 405.54774 307.96745 405.62855 308.33634 405.62855H309.1573C309.1573 405.62855 309.12757 405.38423 309.1573 405.26005 309.18583 405.141 309.29054 405.13194 309.36985 405.10404 309.65217 405.00483 309.65724 404.47966 309.52583 404.02919 309.20564 402.9316 304.821 399.48405 303.3347 399.3637 302.78996 399.3196 302.15544 399.3637 302.15544 399.3637ZM307.75694 397.88966C306.4827 397.3549 305.82624 399.06434 305.84065 399.17948 305.92573 399.85966 310.97996 404.5228 312.03175 404.8915 313.1696 405.29039 313.5333 405.0109 313.211 403.71226 312.66026 401.49293 310.23616 398.93009 307.75694 397.88966ZM313.82276 402.6804C314.08805 402.8363 314.72077 402.84794 315.05363 402.6804 316.30497 402.05049 313.36036 398.34346 312.2283 397.52113 311.51725 397.0046 310.0598 396.40446 309.52583 396.7841 308.64317 397.4116 310.9671 399.12187 312.18449 400.1982 312.6424 400.60307 313.02333 400.9933 313.28959 401.64366 313.4518 402.0399 313.57148 402.5327 313.82276 402.6804ZM353.0111 390.15074 329.7944 397.76435V402.40983C329.7944 402.40983 341.15007 396.96464 347.4833 394.57298 349.4655 393.82444 352.32569 391.98573 352.6426 391.2563 352.86079 390.7541 353.0111 390.15074 353.0111 390.15074ZM371.4351 377.47169C371.4351 377.47169 369.31935 378.0436 367.7519 378.54237 365.28797 379.32643 364.17893 379.9297 362.7769 380.93775 355.9144 385.87174 355.1971 388.0662 347.40614 387.32795 346.21528 387.21513 345.95915 387.2502 344.8448 387.67903L314.8242 399.2309 316.3434 401.57484 374.50389 380.54045 371.4351 377.47169ZM316.8962 397.17738V396.7841H316.15919V396.41557H313.211C313.211 396.41557 313.2518 396.67558 313.211 396.7841 313.1762 396.87663 313.04753 396.84953 312.99736 396.8798 312.94337 396.91233 312.9732 397.02989 313.02677 397.1526 313.60087 398.4681 314.75978 398.48298 316.22856 397.72038 316.82945 397.4084 316.8962 397.35408 316.8962 397.17738ZM317.19004 359.02217 309.89436 395.67854C309.89436 395.67854 310.9358 395.7805 311.78883 395.78263 313.8325 395.7877 314.7946 395.21974 315.67274 395.31 316.64366 395.40983 317.51194 396.3143 318.7388 396.41557 320.50367 396.56126 323.36436 395.09037 323.52958 394.35188 323.72373 393.48399 322.86964 391.58943 322.7925 389.96647 322.67747 387.5451 324.3718 384.17677 325.00364 383.70164 326.94969 382.2383 339.3759 378.72663 339.3759 378.72663 339.3759 378.72663 339.28245 376.3098 339.3759 374.79084 339.4507 373.5747 340.11164 372.14448 341.2185 370.80348 341.98405 369.87596 343.0611 368.59236 343.0611 368.59236 343.0611 368.59236 336.06849 362.17738 332.0055 359.1951 327.08039 355.58 322.01036 353.69898 318.38493 356.89576 317.54258 357.6385 317.4231 357.85115 317.19004 359.02217ZM381.40037 373.8465 378.8105 368.47724C378.8105 368.47724 377.78919 368.99037 377.3334 369.32939 376.7682 369.74983 376.7069 370.42689 376.96488 371.28254 378.02415 374.796 381.00184 376.78315 378.9546 376.54917 378.6895 376.5189 378.60493 376.3946 378.10865 375.30638 376.82463 372.4907 375.966 370.8437 374.90119 370.98774 374.288 371.07069 373.56919 371.6943 373.49186 372.39704 373.40745 373.1643 374.03724 374.25105 374.93803 375.04145 375.62547 375.6446 376.5011 376.22639 376.7806 377.25257 376.95289 377.885 376.96488 378.72663 376.96488 378.72663L372.33955 372.74559 371.34706 374.18373C370.9011 374.8299 370.92344 375.01365 371.57048 376.0213 373.41783 378.89833 377.3099 382.27555 379.2939 382.78034 383.06556 383.74 387.00447 380.2891 393.17973 378.54237 394.8865 378.0596 396.85285 377.6362 396.85285 377.6362 396.85285 377.6362 396.71403 372.1301 396.1279 370.4939 395.68275 369.25126 392.7101 368.51176 390.8212 368.7766 388.64399 369.0819 383.96675 370.25068 383.96675 370.25068 383.96675 370.25068 385.0043 368.70198 385.0723 368.18699 385.14457 367.63978 382.63789 367.15965 382.05046 367.30253 380.5279 367.67289 379.86357 369.231 380.6501 370.86979 382.2286 374.1588 383.91148 375.26255 382.27128 375.0751 382.0062 375.0448 381.9191 374.92195 381.40037 373.8465ZM496.7337 360.30067C496.7337 360.30067 496.98475 360.33628 497.1022 360.30067 497.21147 360.26756 497.19905 360.13594 497.22697 360.05686 497.27293 359.9266 497.4828 359.9224 497.69187 359.93214 498.65638 359.97703 501.6902 361.7231 502.81428 362.88029 505.77705 365.93037 509.4194 371.4425 509.4194 371.4425 509.4194 371.4425 508.7866 362.06773 507.605 357.721 506.89747 355.11814 503.12763 350.51786 499.31333 348.50804 497.15876 347.37275 493.544 345.94389 493.544 345.94389L498.9698 353.8739C498.9698 353.8739 494.07398 351.0702 491.2059 349.79786 482.42808 345.9038 468.65846 348.33979 463.3827 354.40437 462.66728 355.22676 461.82484 357.96745 461.72438 359.79948 461.52729 363.39283 461.72438 369.47563 461.72438 369.47563 461.72438 369.47563 473.6409 373.39796 485.6781 376.69978 496.50068 379.6684 507.42079 382.13545 507.42079 382.13545 507.42079 382.13545 507.47819 380.76008 507.42079 379.61109 507.26469 376.4872 504.59129 369.9872 503.5513 368.40809 501.3428 365.05458 496.7337 360.30067 496.7337 360.30067ZM454.84779 344.4543H448.08915L449.27888 366.15235 459.1447 368.87843 454.84779 344.4543ZM401.12156 358.32157 397.91499 357.3637C396.77095 357.02195 396.62174 356.98146 396.4229 356.95875 394.31593 356.71794 395.01509 360.5584 395.39085 361.6568 395.8219 362.9168 396.40238 364.21958 397.0492 365.0914 397.77244 366.06629 399.3084 365.06733 400.847 363.8937 401.92237 363.07344 402.057 361.99479 402.39274 359.63734 402.42314 359.42387 402.45213 359.2211 402.42835 359.01298 402.39628 358.73246 402.2656 358.6633 401.12156 358.32157ZM415.65943 361.22196C415.65943 361.22196 408.72203 358.52885 406.9992 358.82658 405.9852 359.00184 405.27116 359.56718 405.27116 359.56718 405.27116 359.56718 406.22978 362.25068 406.6921 363.2488 406.95179 363.80943 407.0831 363.8346 407.73625 363.61735 409.5443 363.0159 415.65943 361.22196 415.65943 361.22196ZM404.97236 348.80329V356.37663L435.73054 362.26243C436.90327 362.48686 437.1359 362.52284 438.057 362.62223 441.92085 363.03919 443.34318 360.2112 442.92988 356.61546 442.80628 355.54039 442.6301 354.74266 442.1928 354.03584 441.6899 353.22294 438.07215 351.0749 436.2965 350.53489 431.1178 348.96 416.70314 347.20539 409.37986 348.13954 407.36045 348.3971 404.97236 348.80329 404.97236 348.80329ZM395.13246 354.0238C395.13246 354.0238 395.85417 354.55064 396.44917 354.8878 397.4807 355.47233 398.40318 355.4648 400.19926 355.39076 401.34577 355.34349 402.94215 355.3223 402.94215 355.3223 402.94215 355.3223 404.053 350.25599 403.4983 349.2451 403.24143 348.77699 400.92738 349.5972 399.44456 350.53489 397.6025 351.69978 395.13246 354.0238 395.13246 354.0238Z" fill-rule="evenodd"/>
<path transform="matrix(1,0,0,-1,-2.24055,501.893)" d="M686.1393 175.87381C687.7107 167.0573 692.0103 162.37361 698.5444 158.81626H686.773V126.99103C692.88528 122.366558 697.5712 119.574428 704.82559 117.57649 711.31008 115.76721 718.01736 114.88161 724.7492 114.94585 734.9301 114.9442 744.61087 116.5168 752.43557 122.95026 759.847 129.04396 762.38229 138.81287 762.3253 148.01068 762.2789 155.51435 761.4097 162.73888 757.0451 168.84148 755.2591 171.33864 753.11648 172.95317 750.48178 174.57213H760.19747V204.2658C753.66079 208.70415 748.50888 211.59853 741.05038 213.77547 734.9158 215.5557 728.5541 216.43064 722.1667 216.37256 712.2173 216.3775 702.64688 214.84656 695.04129 208.45052 689.8225 204.0617 687.32736 198.16123 686.1393 191.41985V214.64737H612.8861 610.24246 527.0995V196.1036C526.683 197.52816 526.17819 198.92539 525.5881 200.28722 519.75369 214.07433 504.2941 216.41938 491.23103 216.37277 484.09489 216.3473 477.072 215.7313 470.39216 213.18109 467.45567 212.06002 464.23616 210.18843 461.99855 207.96407 458.3572 204.23912 455.8606 199.54799 454.80479 194.44702 453.71125 189.66011 453.1964 184.7592 453.27134 179.84954V151.40175C453.23146 144.55504 454.0092 137.33628 456.7588 130.96233 459.17808 125.35416 463.2628 121.19975 468.832 118.767948 475.83457 115.71025 483.67744 114.91967 491.26524 114.94567 498.38233 114.970058 505.39039 115.58279 512.0517 118.13044 514.9918 119.25493 518.20797 121.13644 520.4354 123.378269 524.03829 127.111377 526.50326 131.79347 527.5419 136.87656 528.6195 141.64438 529.12686 146.52336 529.05319 151.4109V164.50989H551.5939V145.64533C551.5809 145.16042 551.45578 143.06333 551.3611 142.79039 551.04177 142.49697 547.6735 141.577 546.994 141.3833V116.72857H592.9916V141.32678L589.28439 142.43952C588.9936 142.52678 588.729 142.68474 588.5142 142.89925L588.2767 145.67856V164.50989H612.8861V189.56226C612.9849 189.50643 613.0855 189.45384 613.1878 189.4046 613.4631 188.41397 613.5774 187.38553 613.52627 186.35863L613.51986 145.37656C613.5803 144.30184 613.46597 143.22443 613.1811 142.18637L610.24246 140.68762V116.72857H686.1393V159.04625H668.3722V175.26212H686.1393V175.87381ZM724.0808 185.54389C723.95059 185.66075 723.8201 185.77748 723.6896 185.89406 723.3739 186.17113 723.4052 186.77327 723.5311 187.16994 723.55136 187.16899 723.5716 187.16817 723.59188 187.16747 723.8239 186.64952 723.9882 186.10384 724.0808 185.54389ZM723.7434 148.26071C724.4521 147.51578 724.47927 147.1169 724.4921 146.74613 724.5432 145.91304 724.3824 145.0806 724.0247 144.32649 723.8191 145.05419 723.7568 147.30699 723.7434 148.26071ZM491.28605 144.84854C491.2718 144.70873 491.24873 144.56996 491.21696 144.43306 491.05708 145.46475 490.98088 146.50769 490.9891 147.55167V183.82907C491.00019 184.23041 491.16487 186.93654 491.2092 187.14511 491.51408 183.16513 491.52134 148.96608 491.28605 144.84854Z" fill="#ffffff" fill-rule="evenodd"/>
<path transform="matrix(1,0,0,-1,-2.24055,501.893)" d="M409.91615 116.72857H452.52256V137.45616C452.52256 139.43874 451.39585 141.24901 449.61705 142.12444 449.48728 142.58138 449.37553 144.86841 449.36015 145.61313L449.3566 186.29192C449.31748 187.35186 449.41947 188.4123 449.6599 189.44535 451.4152 190.32935 452.52256 192.12696 452.52256 194.09226V214.64737H408.30744V190.77962L411.29505 189.38446C411.5819 188.4058 411.70164 187.3858 411.64924 186.36733L411.64237 145.3722C411.7055 144.29425 411.5828 143.21347 411.27958 142.17713L408.65306 140.85442C408.3183 141.24253 407.92808 141.57903 407.49494 141.85306 406.71525 143.55786 406.64247 146.78446 406.5794 148.612 406.36338 154.8731 406.03276 161.59738 401.0808 166.12326 406.71058 171.43317 408.22593 178.23886 408.24903 185.85422 408.27339 193.8821 406.1213 203.19226 399.21919 208.2793 395.27119 211.08759 390.7077 212.90895 385.911 213.5908 381.4568 214.34392 376.9442 214.6975 372.42707 214.64737H331.60307 328.9594 245.81647V171.90547L237.01779 214.64737H189.85329L177.28148 145.53208C177.09224 144.44026 176.75763 143.3787 176.2866 142.3757L176.02133 141.96768C174.40605 141.03974 173.41013 139.31902 173.41013 137.45616V116.72857H214.13715 255.51682V137.45616C255.51682 139.47444 254.34963 141.31063 252.52217 142.16725 251.94518 143.28545 251.50542 144.46929 251.21248 145.693L247.3389 164.50989H270.31086V145.64533C270.29789 145.16042 270.17274 143.06333 270.07807 142.79039 269.75874 142.49697 266.3905 141.577 265.71098 141.3833V116.72857H311.70857V141.32678L308.00135 142.43952C307.7106 142.52678 307.44599 142.68474 307.2312 142.89925L306.99369 145.67856V164.50989H331.60307V189.56226C331.67265 189.52297 331.74308 189.48526 331.8144 189.4492 332.0768 188.44532 332.1829 187.40695 332.12889 186.37073L332.12184 145.37416C332.1846 144.27014 332.07624 143.16307 331.80055 142.0922 330.05714 141.204 328.9594 139.4128 328.9594 137.45616V116.72857H372.94456 408.30744 409.91615ZM369.60963 178.84879V185.79253C369.68656 185.76116 369.76188 185.72602 369.83534 185.68723 370.41557 184.40282 370.20668 179.85881 369.72126 178.87342L369.60963 178.84879Z" fill="#ffffff" fill-rule="evenodd"/>
<path transform="matrix(1,0,0,-1,-2.24055,501.893)" d="M193.29163 223.64821C195.60832 222.21746 198.11902 221.12783 200.74639 220.41287 204.54882 219.35268 208.4815 218.83272 212.42884 218.86829 221.47742 218.86717 231.05245 221.53961 234.31142 231.22154 235.85404 235.80445 235.87155 240.39875 235.18033 245.09415 234.86164 247.57245 233.95412 249.9384 232.53369 251.99411H234.43505V272.028C230.04575 275.0083 227.04419 276.87214 222.13668 278.305 218.5176 279.35597 214.7646 279.8736 210.99614 279.84156 204.57865 279.8447 197.89061 278.59806 193.29163 273.8196V278.883H146.50185V272.6775C146.19171 273.0494 145.55309 273.7616 145.235 274.04447 142.38559 276.28703 138.98778 277.72584 135.39441 278.21156 132.42348 278.6922 129.41677 278.91685 126.40738 278.883H102.67515V265.15107C102.67515 263.6747 103.30234 262.26789 104.400447 261.2811 104.384128 253.38484 104.39758 245.48857 104.4408 237.59244 103.31838 236.60466 102.67515 235.18175 102.67515 233.68657V219.8588H126.41495C130.77022 219.84046 135.05951 220.18138 139.22307 221.45766 142.01068 222.31217 144.60462 223.8125 146.50185 226.0663V219.8588H193.29163V223.64821ZM189.2302 252.37743C189.71791 250.80843 190.45505 249.32817 191.41333 247.99349H183.42104V252.37743H189.2302Z" fill="#ffffff" fill-rule="evenodd"/>
<path transform="matrix(1,0,0,-1,-2.24055,501.893)" d="M558.05868 381.8601H556.105 519.1334V371.16374L515.1188 381.8601H476.81318 476.18199 432.59806V357.99238L435.58567 356.5972C435.87254 355.61857 435.99226 354.59855 435.93986 353.58009L435.93299 312.58494C435.99613 311.507 435.8734 310.4262 435.5702 309.38987L433.7195 308.4579C433.31867 308.8351 432.86048 309.14637 432.36207 309.38 431.78507 310.4982 431.3453 311.68205 431.05238 312.90577L416.85768 381.8601H369.69319L357.12138 312.7448C356.93214 311.653 356.59754 310.59147 356.1265 309.58845L355.86125 309.18043C355.46528 308.95295 355.10099 308.67436 354.77775 308.35179L352.52955 309.39143C352.5232 309.39436 352.51716 309.39796 352.5115 309.40217 352.35496 309.87638 352.2316 312.08207 352.21379 312.8406L352.21 353.511C352.17045 354.54856 352.28407 355.5863 352.54719 356.59074 354.37837 357.44587 355.5487 359.284 355.5487 361.30503V381.8601H310.8911L307.10679 364.16368 303.32249 381.8601H257.97489V361.30503C257.97489 359.3428 259.07884 357.5475 260.82987 356.66197 261.0923 355.65806 261.19837 354.6197 261.14436 353.58348L261.1373 312.5869C261.2001 311.4829 261.0917 310.37583 260.816 309.30494 259.0726 308.41676 257.97489 306.62556 257.97489 304.6689V283.9413H294.7727V284.95835L295.01829 283.9413H353.25004 355.5487 393.97706 432.59806 435.35673 476.18199 476.81318 514.5897V296.18409L519.5713 283.9413H554.89627L554.8927 353.50468C554.8536 354.5646 554.95559 355.62504 555.196 356.65809 555.9454 357.0355 556.5924 357.58857 557.08187 358.27009 557.5895 357.56324 558.2663 356.99497 559.05038 356.61735 559.3257 355.62675 559.43997 354.5983 559.38888 353.57139L559.3824 312.5893C559.44296 311.5146 559.3285 310.43717 559.04367 309.3991L556.105 307.90037V283.9413H632.00186V326.259H614.23477V342.47486H632.00186V381.8601H558.05868ZM476.18199 358.82109V358.05766L479.09919 356.631C479.3935 355.6404 479.51643 354.60957 479.46348 353.58024L479.45939 312.58494C479.523 311.4991 479.398 310.4105 479.09 309.36735L476.18199 307.82826V307.15287C475.66807 308.0987 474.87345 308.86189 473.90766 309.3372 473.7779 309.79414 473.66615 312.08116 473.65077 312.82588L473.64723 353.50468C473.6081 354.5646 473.71009 355.62504 473.95054 356.65809 474.89735 357.13493 475.67588 357.8896 476.18199 358.82109Z" fill="#ffffff" fill-rule="evenodd"/>
<path transform="matrix(1,0,0,-1,-2.24055,501.893)" d="M148.15135 141.69329C163.35224 142.01039 170.38242 146.7228 173.4343 149.95368 176.80323 153.62877 179.08242 158.16925 180.01653 163.06655 180.99108 167.61595 181.45043 172.26062 181.38588 176.91281 181.36792 184.51778 180.85543 190.76644 178.53705 197.79219 173.80332 212.1376 158.68483 214.76291 145.72035 214.64737H103.13124V194.09226C103.13124 192.13005 104.23517 190.33472 105.98621 189.4492 106.248638 188.44532 106.354709 187.40695 106.30071 186.37073L106.293659 145.37416C106.35644 144.27014 106.248058 143.16307 105.97237 142.0922 104.22895 141.204 103.13124 139.4128 103.13124 137.45616V116.72857H148.15135V141.69329ZM143.55146 170.90576V185.53397C143.5601 185.52933 143.56871 185.52462 143.57727 185.51982 143.65027 185.38225 143.69931 185.23325 143.72228 185.07921 143.90444 184.03464 144.00173 182.97704 144.01322 181.91677L144.01273 174.0528C144.02307 173.23877 143.95426 172.42566 143.80725 171.62494 143.78154 171.37648 143.7036 171.13626 143.57854 170.92003 143.56957 170.91518 143.56053 170.91042 143.55146 170.90576Z" fill="#ffffff" fill-rule="evenodd"/>
<path transform="matrix(1,0,0,-1,-2.24055,501.893)" d="M140.91321 283.9413C145.57833 283.90119 150.24004 284.2054 154.86038 284.8515 157.52877 285.22779 160.1613 285.82496 162.73087 286.63685 168.92061 288.53233 173.92516 292.12974 176.79982 297.95283 180.04523 304.52696 180.9975 312.43608 180.92554 319.7835V345.9793C180.96599 352.89216 180.23686 359.88816 177.54497 366.30165 175.17169 372.09498 170.39894 376.5717 164.46572 378.5696 157.09014 381.17454 148.7683 381.9143 140.9005 381.8601H102.326259V358.10346L105.18417 356.66047C105.35004 356.15663 105.47045 353.98606 105.48868 353.1935L105.49584 312.44584C105.551548 311.38529 105.434078 310.32276 105.14805 309.3L102.326259 307.86326V283.9413H140.91321ZM143.20647 316.4027V350.15809C143.28394 349.12623 143.20914 317.9019 143.20647 316.4027Z" fill="#ffffff" fill-rule="evenodd"/>
<path transform="matrix(1,0,0,-1,-2.24055,501.893)" d="M181.78929 347.0623V318.6145C181.71521 305.89143 184.32297 291.66899 197.34998 285.98069 204.35254 282.923 212.19538 282.13243 219.7832 282.15843 229.07474 282.19026 241.79462 283.38615 248.95339 290.591 252.55622 294.32414 255.0212 299.00624 256.0598 304.0893 257.13749 308.85713 257.6448 313.7361 257.57115 318.62367V347.07215C257.61146 354.04798 256.8367 361.04725 254.10605 367.49998 248.27164 381.28709 232.81204 383.63215 219.749 383.5855 210.42807 383.55226 197.73009 382.3477 190.5165 375.17683 186.87517 371.45188 184.37856 366.76075 183.32276 361.65977 182.2292 356.87287 181.71436 351.97196 181.78929 347.0623ZM219.804 312.06129C219.78977 311.92149 219.7667 311.7827 219.73493 311.6458 219.57505 312.67753 219.49884 313.72044 219.50708 314.7644V351.0418C219.51815 351.44319 219.68282 354.1493 219.72714 354.35786 220.03203 350.37788 220.03929 316.17884 219.804 312.06129Z" fill="#ffffff" fill-rule="evenodd"/>
<path transform="matrix(1,0,0,-1,-2.24055,501.893)" d="M107.52924 289.14433V304.6689C108.679218 305.28224 109.493778 306.1543 109.97293 307.2851 110.45209 308.4159 110.691669 310.2271 110.691669 312.71873V353.3127C110.691669 355.80433 110.45209 357.60594 109.97293 358.71757 109.493778 359.82923 108.679218 360.69169 107.52924 361.30503V376.65715H140.93592C154.58225 376.65715 163.7916 374.5297 168.56398 370.27479 173.33635 366.0199 175.72255 357.93177 175.72255 346.01039V319.73356C175.72255 307.8505 173.32677 299.78153 168.53524 295.52665 163.74369 291.27177 154.5439 289.14433 140.93592 289.14433H107.52924ZM138.00348 308.23384H141.16591C144.0025 308.23384 145.92871 308.84715 146.94452 310.0738 147.96033 311.3004 148.46823 313.6962 148.46823 317.2611V349.3453C148.46823 352.68025 147.96991 354.88435 146.97327 355.95765 145.97663 357.03096 144.04084 357.5676 141.16591 357.5676H138.00348V308.23384Z" fill="#6d6d6d"/>
<path transform="matrix(1,0,0,-1,-2.24055,501.893)" d="M225.17133 314.78868V351.18528C225.17133 354.2902 224.74967 356.50389 223.90636 357.82637 223.06304 359.1488 221.68308 359.81007 219.76645 359.81007 217.81151 359.81007 216.41237 359.16798 215.56906 357.88386 214.72574 356.5997 214.3041 354.36686 214.3041 351.18528V314.78868C214.3041 311.64543 214.72574 309.4317 215.56906 308.14759 216.41237 306.86344 217.81151 306.22138 219.76645 306.22138 221.68308 306.22138 223.06304 306.87303 223.90636 308.17634 224.74967 309.47966 225.17133 311.68376 225.17133 314.78868ZM186.99227 347.10289C186.99227 358.83259 189.40721 366.9782 194.23709 371.53977 199.06697 376.10133 207.57675 378.38209 219.76645 378.38209 231.91782 378.38209 240.38927 376.10133 245.18082 371.53977 249.97237 366.9782 252.36815 358.83259 252.36815 347.10289V318.58357C252.36815 306.89219 249.98195 298.76573 245.20957 294.2042 240.4372 289.64265 231.95615 287.36186 219.76645 287.36186 207.53842 287.36186 199.01906 289.63307 194.20835 294.1754 189.39763 298.7178 186.99227 306.85386 186.99227 318.58357V347.10289Z" fill="#6d6d6d"/>
<path transform="matrix(1,0,0,-1,-2.24055,501.893)" d="M286.5223 341.2955V312.71873C286.5223 309.9588 286.7427 308.04219 287.18354 306.96888 287.62437 305.89558 288.41975 305.1289 289.56974 304.6689V289.14433H263.1779V304.6689C264.36619 305.28224 265.19035 306.1543 265.6503 307.2851 266.1103 308.4159 266.3403 310.2271 266.3403 312.71873V353.3127C266.3403 355.80433 266.1103 357.60594 265.6503 358.71757 265.19035 359.82923 264.36619 360.69169 263.1779 361.30503V376.65715H299.11448L307.10679 339.28306 315.0991 376.65715H350.3457V361.30503C349.11909 360.73 348.2566 359.87715 347.75828 358.74635 347.25996 357.6155 347.0108 355.80433 347.0108 353.3127V312.71873C347.0108 310.18879 347.25996 308.36799 347.75828 307.25636 348.2566 306.1447 349.11909 305.28224 350.3457 304.6689V289.14433H318.779V304.6689C319.8523 305.1289 320.60939 305.89558 321.0502 306.96888 321.491 308.04219 321.71144 309.9588 321.71144 312.71873V341.2955L309.6942 289.14433H299.11448L286.5223 341.2955Z" fill="#6d6d6d"/>
<path transform="matrix(1,0,0,-1,-2.24055,501.893)" d="M387.2023 327.32337H396.28709L391.3422 358.3726 387.2023 327.32337ZM358.453 289.14433V304.6689C359.258 304.9756 359.99589 305.76139 360.66673 307.02638 361.33753 308.29133 361.8646 309.90129 362.24794 311.85624L374.03514 376.65715H412.61668L425.95634 311.85624C426.41633 309.86296 427.01048 308.2434 427.7388 306.99763 428.4671 305.7518 429.2721 304.9756 430.15373 304.6689V289.14433H396.05708V304.6689C396.93873 304.9756 397.64787 305.55058 398.1845 306.39387 398.72117 307.23719 398.9895 308.23384 398.9895 309.3838 398.9895 309.57548 398.92243 309.9492 398.78828 310.50505 398.65409 311.06086 398.54869 311.4729 398.47203 311.74125H385.18986C385.15153 311.4729 385.08445 311.0321 384.9886 310.41877 384.89277 309.80546 384.84486 309.34547 384.84486 309.03883 384.84486 307.7355 385.1611 306.72929 385.79359 306.02015 386.42607 305.31098 387.39396 304.86058 388.69728 304.6689L388.75477 289.14433H358.453Z" fill="#6d6d6d"/>
<path transform="matrix(1,0,0,-1,-2.24055,501.893)" d="M471.6102 376.65715V361.30503C470.4219 360.73 469.59776 359.8963 469.13777 358.80384 468.67778 357.71138 468.44779 355.88099 468.44779 353.3127V312.71873C468.44779 310.11213 468.67778 308.27217 469.13777 307.19886 469.59776 306.12556 470.4219 305.28224 471.6102 304.6689V289.14433H437.80104V304.6689C439.02769 305.32057 439.89018 306.22138 440.38847 307.37135 440.88679 308.52134 441.13597 310.30378 441.13597 312.71873V353.3127C441.13597 355.72767 440.88679 357.5101 440.38847 358.66007 439.89018 359.81007 439.02769 360.69169 437.80104 361.30503V376.65715H471.6102Z" fill="#6d6d6d"/>
<path transform="matrix(1,0,0,-1,-2.24055,501.893)" d="M506.10935 312.71873C506.10935 309.92045 506.3489 307.99427 506.82807 306.94013 507.30723 305.88597 508.16014 305.1289 509.38676 304.6689V289.14433H481.38496V304.6689C482.57328 305.32057 483.41658 306.22138 483.9149 307.37135 484.4132 308.52134 484.66239 310.30378 484.66239 312.71873V353.3127C484.66239 355.72767 484.4132 357.5101 483.9149 358.66007 483.41658 359.81007 482.57328 360.69169 481.38496 361.30503V376.65715H511.51423L528.1313 332.38325V353.3127C528.1313 356.07264 527.8534 357.9605 527.29757 358.97633 526.74179 359.99214 525.7547 360.76838 524.33639 361.30503V376.65715H552.85568V361.30503C551.66738 360.73 550.8432 359.8963 550.38327 358.80384 549.9233 357.71138 549.69326 355.88099 549.69326 353.3127V289.14433H523.0714L506.10935 330.83079V312.71873Z" fill="#6d6d6d"/>
<path transform="matrix(1,0,0,-1,-2.24055,501.893)" d="M561.308 289.14433V304.6689C562.5346 305.32057 563.3875 306.22138 563.86666 307.37135 564.3458 308.52134 564.5854 310.30378 564.5854 312.71873V353.3127C564.5854 355.72767 564.3458 357.5101 563.86666 358.66007 563.3875 359.81007 562.5346 360.69169 561.308 361.30503V376.65715H626.7988V347.67787H601.7295V350.1503C601.7295 353.29356 601.1928 355.4114 600.1195 356.50389 599.0462 357.59635 597.0146 358.14259 594.02468 358.14259H591.66726V342.61799H609.0318V325.65589H591.66726L591.72476 308.00386C591.9547 307.9655 592.2422 307.93678 592.5872 307.91758 592.9322 307.8984 593.4113 307.88883 594.02468 307.88883 596.8996 307.88883 598.92166 308.62675 600.09078 310.10255 601.2599 311.57835 601.8445 314.17536 601.8445 317.8936 601.8445 318.69859 601.8349 319.32148 601.81576 319.7623 601.7966 320.20314 601.7678 320.63438 601.7295 321.056H626.7988V289.14433H561.308Z" fill="#6d6d6d"/>
<path transform="matrix(1,0,0,-1,-2.24055,501.893)" d="M107.878139 225.06179V233.68657C108.517009 234.0273 108.96954 234.51178 109.23574 235.14 109.50194 235.76822 109.63503 236.77445 109.63503 238.15868V260.7109C109.63503 262.09513 109.50194 263.096 109.23574 263.7136 108.96954 264.33119 108.517009 264.81034 107.878139 265.15107V273.68003H126.43739C134.01869 273.68003 139.135 272.4981 141.78632 270.13429 144.43764 267.77046 145.7633 263.27705 145.7633 256.65406V242.0558C145.7633 235.45412 144.43231 230.97136 141.77036 228.60753 139.10839 226.2437 133.99739 225.06179 126.43739 225.06179H107.878139ZM124.80827 235.66707H126.56517C128.14105 235.66707 129.21117 236.0078 129.77552 236.68927 130.33985 237.37073 130.62201 238.70172 130.62201 240.68222V258.50679C130.62201 260.35954 130.34517 261.584 129.79148 262.1803 129.2378 262.77659 128.16236 263.07475 126.56517 263.07475H124.80827V235.66707Z" fill="#6d6d6d"/>
<path transform="matrix(1,0,0,-1,-2.24055,501.893)" d="M151.70482 225.06179V233.68657C152.38629 234.0486 152.86013 234.54904 153.12631 235.18791 153.39252 235.8268 153.52562 236.81705 153.52562 238.15868V260.7109C153.52562 262.05253 153.39252 263.0428 153.12631 263.68165 152.86013 264.32054 152.38629 264.81034 151.70482 265.15107V273.68003H188.08864V257.5804H174.16121V258.95399C174.16121 260.70027 173.86307 261.87684 173.26679 262.48377 172.6705 263.0907 171.54183 263.39418 169.88077 263.39418H168.57108V254.76938H178.21805V245.346H168.57108L168.60301 235.53929C168.73079 235.518 168.8905 235.50203 169.08217 235.49138 169.27384 235.48073 169.54003 235.4754 169.88077 235.4754 171.47795 235.4754 172.60129 235.88535 173.25083 236.70525 173.90033 237.52513 174.2251 238.96791 174.2251 241.0336 174.2251 241.48082 174.21977 241.82688 174.20912 242.07178 174.19847 242.31668 174.18251 242.55626 174.16121 242.79051H188.08864V225.06179H151.70482Z" fill="#6d6d6d"/>
<path transform="matrix(1,0,0,-1,-2.24055,501.893)" d="M194.22182 229.31029V242.66274H208.94785V239.97946C208.94785 237.89249 209.17678 236.47632 209.63463 235.73096 210.0925 234.98561 210.89641 234.61293 212.04639 234.61293 213.02599 234.61293 213.79264 234.98561 214.34633 235.73096 214.90001 236.47632 215.17687 237.5198 215.17687 238.86144 215.17687 241.37435 212.79174 243.3442 208.02149 244.77101 207.10576 245.04785 206.41365 245.26082 205.94515 245.40988 200.77028 247.04965 197.40554 248.82785 195.85095 250.74448 194.29636 252.66109 193.51906 255.48279 193.51906 259.20954 193.51906 264.51219 194.93523 268.4093 197.76757 270.9009 200.5999 273.39253 205.00814 274.63835 210.99224 274.63835 214.42086 274.63835 217.64717 274.19645 220.67118 273.31266 223.69516 272.4289 226.5488 271.08195 229.23207 269.2718V257.19709H214.9852V259.4012C214.9852 260.95579 214.719 262.14305 214.1866 262.96293 213.6542 263.7828 212.88756 264.19276 211.88666 264.19276 210.86447 264.19276 210.09783 263.90528 209.58672 263.33027 209.07563 262.75529 208.82007 261.90345 208.82007 260.77479 208.82007 258.6026 211.31168 256.80314 216.29489 255.3763 216.7208 255.24854 217.04024 255.1527 217.25319 255.0888 222.81139 253.47034 226.39441 251.5963 228.00223 249.46674 229.61006 247.33716 230.41399 244.02567 230.41399 239.53226 230.41399 234.29349 228.93926 230.40702 225.98978 227.87282 223.04032 225.33863 218.5203 224.07154 212.4297 224.07154 208.68166 224.07154 205.24771 224.52407 202.12789 225.42914 199.00804 226.3342 196.3727 227.62792 194.22182 229.31029Z" fill="#6d6d6d"/>
<path transform="matrix(1,0,0,-1,-2.24055,501.893)" d="M138.34848 165.28548H140.13094C143.58084 165.28548 145.95746 165.91796 147.26076 167.18292 148.56406 168.44789 149.21572 170.74784 149.21572 174.08277V181.84506C149.21572 185.48664 148.57364 187.9495 147.2895 189.23363 146.00537 190.51776 143.61917 191.15984 140.13094 191.15984H138.34848V165.28548ZM138.34848 145.50597C138.34848 142.74604 138.68389 140.82942 139.3547 139.7561 140.02552 138.6828 141.2234 137.91616 142.94837 137.45616V121.93156H108.33422V137.45616C109.52252 138.06949 110.34667 138.94155 110.80666 140.07236 111.26665 141.20316 111.49664 143.01436 111.49664 145.50597V186.09996C111.49664 188.59157 111.26665 190.39319 110.80666 191.50482 110.34667 192.61647 109.52252 193.47895 108.33422 194.09226V209.44438H145.7658C157.30384 209.44438 165.25782 207.24027 169.6277 202.83205 173.99759 198.42382 176.18254 189.77986 176.18254 176.90019 176.18254 165.6688 173.988 157.85858 169.59896 153.46952 165.20989 149.08046 157.38051 146.88594 146.11078 146.88594H138.34848V145.50597Z" fill="#6d6d6d"/>
<path transform="matrix(1,0,0,-1,-2.24055,501.893)" d="M207.3624 160.11061H216.44718L211.5023 191.15984 207.3624 160.11061ZM178.61312 121.93156V137.45616C179.41809 137.76284 180.15599 138.54865 180.82682 139.81362 181.49762 141.07859 182.0247 142.68854 182.40802 144.6435L194.19524 209.44438H232.77677L246.11644 144.6435C246.57643 142.6502 247.17058 141.03066 247.8989 139.78487 248.62722 138.53907 249.43219 137.76284 250.31383 137.45616V121.93156H216.21718V137.45616C217.09883 137.76284 217.80797 138.33782 218.34464 139.18112 218.88129 140.02443 219.14962 141.02108 219.14962 142.17105 219.14962 142.36272 219.08252 142.73645 218.94837 143.29227 218.8142 143.84809 218.70879 144.26016 218.63213 144.52849H205.34995C205.31162 144.26016 205.24454 143.81934 205.14871 143.20603 205.05287 142.59272 205.00496 142.13272 205.00496 141.82607 205.00496 140.52275 205.3212 139.51653 205.95369 138.80739 206.58617 138.09824 207.55406 137.64783 208.85736 137.45616L208.91486 121.93156H178.61312Z" fill="#6d6d6d"/>
<path transform="matrix(1,0,0,-1,-2.24055,501.893)" d="M326.4001 209.44438V169.71286H307.19557V184.605C307.19557 187.2116 306.81224 188.98447 306.0456 189.92362 305.27894 190.86277 303.86067 191.38983 301.7907 191.50482V145.50597C301.7907 142.97603 302.13569 141.16483 302.82569 140.07236 303.51567 138.97988 304.74229 138.10782 306.50559 137.45616V121.93156H270.91398V137.45616C272.63893 138.06949 273.8368 138.9128 274.50764 139.9861 275.17845 141.0594 275.51387 142.89937 275.51387 145.50597V191.50482C273.4439 191.38983 272.0256 190.86277 271.25895 189.92362 270.4923 188.98447 270.10899 187.2116 270.10899 184.605V169.71286H251.01946V209.44438H326.4001Z" fill="#6d6d6d"/>
<path transform="matrix(1,0,0,-1,-2.24055,501.893)" d="M364.40666 173.39278H367.16658C370.3098 173.39278 372.46604 174.04442 373.63517 175.34774 374.8043 176.65103 375.38887 179.06597 375.38887 182.59255 375.38887 186.00412 374.72764 188.32324 373.40519 189.54987 372.0827 190.7765 369.56236 191.38983 365.84413 191.38983H364.40666V173.39278ZM364.40666 145.50597C364.40666 142.63105 364.6462 140.69525 365.12538 139.69861 365.60453 138.70197 366.4766 137.95449 367.74156 137.45616V121.93156H334.16239V137.45616C335.3507 138.06949 336.17485 138.94155 336.63484 140.07236 337.09483 141.20316 337.3248 143.01436 337.3248 145.50597V186.09996C337.3248 188.59157 337.09483 190.39319 336.63484 191.50482 336.17485 192.61647 335.3507 193.47895 334.16239 194.09226V209.44438H372.45646C383.72618 209.44438 391.64179 207.64276 396.20335 204.03952 400.7649 200.43627 403.0457 194.37975 403.0457 185.86997 403.0457 180.3501 402.00114 175.97063 399.91203 172.73154 397.8229 169.49245 394.59339 167.20209 390.2235 165.86046 394.3634 164.74883 397.22874 163.1101 398.81956 160.94434 400.41035 158.77855 401.2632 154.60991 401.37825 148.4384 401.41658 148.2084 401.43574 147.90174 401.43574 147.51842 401.55073 141.84523 402.6432 138.49114 404.71315 137.45616V121.93156H375.61888C374.62223 125.80312 374.08558 132.08963 374.0089 140.79108 374.0089 142.40105 373.98976 143.62769 373.95143 144.471 373.87474 149.45421 373.28059 152.63579 372.16896 154.01576 371.0573 155.39572 368.98738 156.08571 365.9591 156.08571H364.40666V145.50597Z" fill="#6d6d6d"/>
<path transform="matrix(1,0,0,-1,-2.24055,501.893)" d="M447.31959 209.44438V194.09226C446.1313 193.51728 445.30714 192.68355 444.84715 191.59107 444.38716 190.4986 444.15718 188.66823 444.15718 186.09996V145.50597C444.15718 142.89937 444.38716 141.0594 444.84715 139.9861 445.30714 138.9128 446.1313 138.06949 447.31959 137.45616V121.93156H413.5104V137.45616C414.73707 138.10782 415.59956 139.00864 416.09788 140.1586 416.5962 141.30858 416.84535 143.09104 416.84535 145.50597V186.09996C416.84535 188.5149 416.5962 190.29735 416.09788 191.44733 415.59956 192.59729 414.73707 193.47895 413.5104 194.09226V209.44438H447.31959Z" fill="#6d6d6d"/>
<path transform="matrix(1,0,0,-1,-2.24055,501.893)" d="M496.65336 147.57592V183.97252C496.65336 187.07744 496.2317 189.29113 495.3884 190.6136 494.54508 191.93607 493.1651 192.59729 491.24848 192.59729 489.29356 192.59729 487.8944 191.95523 487.0511 190.6711 486.2078 189.38697 485.78614 187.1541 485.78614 183.97252V147.57592C485.78614 144.43267 486.2078 142.21897 487.0511 140.93483 487.8944 139.6507 489.29356 139.00864 491.24848 139.00864 493.1651 139.00864 494.54508 139.66028 495.3884 140.96358 496.2317 142.26688 496.65336 144.471 496.65336 147.57592ZM458.4743 179.8901C458.4743 191.61983 460.88926 199.76546 465.71913 204.32701 470.549 208.88857 479.05879 211.16934 491.24848 211.16934 503.39985 211.16934 511.8713 208.88857 516.66287 204.32701 521.4544 199.76546 523.85018 191.61983 523.85018 179.8901V151.37082C523.85018 139.67945 521.464 131.55298 516.6916 126.991428 511.91923 122.42987 503.4382 120.14909 491.24848 120.14909 479.02046 120.14909 470.5011 122.42029 465.69038 126.96268 460.87968 131.50507 458.4743 139.64112 458.4743 151.37082V179.8901Z" fill="#6d6d6d"/>
<path transform="matrix(1,0,0,-1,-2.24055,501.893)" d="M607.6831 209.44438V169.71286H588.4786V184.605C588.4786 187.2116 588.0953 188.98447 587.3286 189.92362 586.56198 190.86277 585.1437 191.38983 583.0737 191.50482V145.50597C583.0737 142.97603 583.4187 141.16483 584.1087 140.07236 584.79867 138.97988 586.0253 138.10782 587.7886 137.45616V121.93156H552.19699V137.45616C553.92196 138.06949 555.1198 138.9128 555.79067 139.9861 556.4614 141.0594 556.7969 142.89937 556.7969 145.50597V191.50482C554.7269 191.38983 553.3086 190.86277 552.542 189.92362 551.7753 188.98447 551.39199 187.2116 551.39199 184.605V169.71286H532.3025V209.44438H607.6831Z" fill="#6d6d6d"/>
<path transform="matrix(1,0,0,-1,-2.24055,501.893)" d="M615.4454 121.93156V137.45616C616.67208 138.10782 617.52499 139.00864 618.0041 140.1586 618.4832 141.30858 618.72286 143.09104 618.72286 145.50597V186.09996C618.72286 188.5149 618.4832 190.29735 618.0041 191.44733 617.52499 192.59729 616.67208 193.47895 615.4454 194.09226V209.44438H680.9363V180.4651H655.8669V182.93753C655.8669 186.0808 655.33029 188.19866 654.25698 189.29113 653.18368 190.3836 651.15206 190.92984 648.1621 190.92984H645.8046V175.40523H663.1692V158.44315H645.8046L645.8621 140.79108C646.09219 140.75275 646.37966 140.724 646.7246 140.70484 647.06967 140.68567 647.54879 140.67609 648.1621 140.67609 651.03707 140.67609 653.0591 141.41399 654.2282 142.88979 655.39736 144.36559 655.9819 146.9626 655.9819 150.68083 655.9819 151.48583 655.9723 152.10872 655.9531 152.54955 655.93399 152.99036 655.9052 153.4216 655.8669 153.84326H680.9363V121.93156H615.4454Z" fill="#6d6d6d"/>
<path transform="matrix(1,0,0,-1,-2.24055,501.893)" d="M691.976 129.57886V153.61327H718.48287V148.78339C718.48287 145.02681 718.8949 142.4777 719.71908 141.13608 720.5432 139.79445 721.99026 139.12363 724.0602 139.12363 725.8235 139.12363 727.2035 139.79445 728.2001 141.13608 729.1967 142.4777 729.69509 144.356 729.69509 146.77094 729.69509 151.29416 725.40188 154.8399 716.81539 157.40818 715.1671 157.9065 713.92129 158.28981 713.078 158.55814 703.7632 161.50974 697.70669 164.7105 694.90847 168.1604 692.11019 171.61032 690.71109 176.68936 690.71109 183.39752 690.71109 192.94229 693.26016 199.9571 698.35836 204.442 703.45657 208.9269 711.39138 211.16934 722.1628 211.16934 728.3343 211.16934 734.1416 210.37393 739.58486 208.78314 745.028 207.19235 750.16458 204.76782 754.99447 201.50959V179.77512H729.3501V183.74253C729.3501 186.54079 728.8709 188.67781 727.9126 190.15361 726.9543 191.62941 725.57437 192.36731 723.7727 192.36731 721.93276 192.36731 720.5528 191.84983 719.6328 190.81484 718.7128 189.77986 718.25289 188.24657 718.25289 186.21495 718.25289 182.30506 722.73776 179.06597 731.7075 176.4977 732.4742 176.2677 733.04916 176.0952 733.4325 175.98021 743.4372 173.06696 749.88668 169.6937 752.78079 165.86046 755.67489 162.02722 757.1219 156.06655 757.1219 147.97841 757.1219 138.54865 754.46737 131.55298 749.1583 126.991428 743.8493 122.42987 735.71328 120.14909 724.7502 120.14909 718.00369 120.14909 711.8226 120.96366 706.2069 122.59279 700.5912 124.22191 695.8476 126.550609 691.976 129.57886Z" fill="#6d6d6d"/>
<path transform="matrix(1,0,0,-1,-2.24055,501.893)" d="M668.56106 291.07469V294.01115C666.62649 293.03974 664.6222 292.1673 662.56747 291.3875 659.61776 290.2681 652.4025 288.63887 651.1434 288.8079 649.6076 289.01405 646.6911 290.7573 643.77297 292.12458 642.1785 292.8716 627.4932 295.60917 625.98086 295.44123 621.84896 294.98249 616.13406 294.6599 615.27169 295.07273 612.44186 296.42738 604.7418 303.70375 604.7418 303.70375L599.5286 300.50859C599.5286 300.50859 601.86587 298.19657 602.4988 297.28385 602.8054 296.8416 602.2615 296.8416 601.3195 297.28385 599.9789 297.91325 597.59219 299.19529 597.59219 299.19529L581.8295 280.9554 589.62417 279.5799C589.62417 279.5799 581.51089 271.0585 579.28207 270.0134 577.9398 269.384 574.7772 270.7929 571.0272 270.75044 569.3769 270.73176 563.9131 269.71385 561.59317 268.72358 559.9575 268.02543 557.47799 266.70713 557.47799 266.70713 557.47799 266.70713 561.19369 263.8588 563.65689 263.38005 565.95028 262.9343 572.7777 264.6016 572.7777 264.6016 572.7777 264.6016 569.3575 262.44068 568.04226 261.53746 567.35507 261.06556 567.24246 260.93696 567.3862 260.61616 567.69918 259.91835 569.2254 258.311 569.8848 256.7467 570.41677 255.48477 570.6735 253.00551 570.43759 251.44002 570.08816 249.12126 568.81118 245.0969 568.81118 245.0969 568.81118 245.0969 572.9186 246.65435 575.22836 247.90222 577.4634 249.10974 582.3942 253.40186 583.52 255.64113 584.2516 257.09623 584.8099 258.9578 584.8099 258.9578H589.23208C589.23208 258.9578 588.92379 257.10926 589.1797 256.25987 589.3264 255.773 590.14956 255.58588 590.77999 255.89606 591.2863 256.14518 591.63388 256.40336 591.91268 256.228 592.17129 256.06535 592.1979 255.56673 592.5715 255.07013 593.5947 253.70987 599.17019 251.70142 599.17019 251.70142L599.5506 259.82017C599.5506 259.82017 603.1321 260.14729 606.73678 260.8004 611.96377 261.7475 617.23959 263.38005 617.23959 263.38005L616.134 260.30659 626.4248 254.41349C626.4248 254.41349 627.0254 258.91603 626.82107 261.42689 626.6994 262.92216 626.2923 263.7111 626.08407 264.92784 626.02859 265.25187 625.9872 265.60624 626.02597 265.94544 626.07827 266.40269 626.20547 266.5071 627.298 266.98957 634.62869 270.2267 645.60446 274.97825 650.22207 282.17454 651.26449 283.7991 651.97018 285.6645 652.98599 286.4125 653.84536 287.04536 657.3452 287.38825 659.9878 287.8866 662.71578 288.40104 665.64859 289.54624 668.56106 291.07469Z" fill-rule="evenodd"/>
<path transform="matrix(1,0,0,-1,-2.24055,501.893)" d="M624.9215 266.32026 621.114 264.906C621.1874 264.9282 621.26199 264.9507 621.33688 264.97334L619.24398 261.4514 624.2656 258.5757C624.34609 259.95793 624.4088 261.34693 624.01437 262.6949 623.8442 263.27113 623.703 263.8555 623.59127 264.44584 623.39797 265.44749 624.5005 266.039 624.9215 266.32026Z" fill="#f76921" fill-rule="evenodd"/>
<path transform="matrix(1,0,0,-1,-2.24055,501.893)" d="M592.21347 259.20054 591.78067 258.8141C592.7812 258.7815 593.7818 258.25154 594.2573 257.34034L594.59866 256.62059 595.81137 255.89574C596.1398 255.73348 596.4703 255.57552 596.8028 255.42188L597.1174 259.83818 592.21347 259.20054Z" fill="#f76921" fill-rule="evenodd"/>
<path transform="matrix(1,0,0,-1,-2.24055,501.893)" d="M582.9061 261.41139C580.76699 262.7493 579.6558 265.01869 579.9108 267.52885 578.7664 267.16804 577.3754 267.3379 576.2231 267.5475 574.5354 267.93186 572.8147 268.1533 571.08468 268.2087 568.8835 268.15925 564.79519 267.1531 562.6959 266.42518 563.44479 266.04298 564.12106 265.77665 565.00289 265.84999 567.41909 266.08198 569.81527 266.48884 572.1726 267.06736 573.53439 267.40156 574.90927 266.5685 575.24349 265.20674 575.50399 264.1451 575.0558 263.03593 574.13088 262.45335 572.99337 261.73683 571.8622 261.01029 570.7375 260.27384 571.18917 259.63578 571.94638 258.41786 572.2379 257.71348 572.9656 255.60298 573.2118 253.35643 572.95858 251.13846 572.873 250.5736 572.75936 250.01335 572.6181 249.4598 573.0809 249.67665 573.5412 249.89884 573.9989 250.1263 575.4847 250.94895 580.1723 254.76555 581.2757 256.83409 581.90798 258.01939 582.4778 260.0076 582.9061 261.41139Z" fill="#f76921" fill-rule="evenodd"/>
<path transform="matrix(1,0,0,-1,-2.24055,501.893)" d="M590.6334 281.96406C598.71377 287.83036 609.9736 292.78367 612.84658 293.92527 612.428 293.98323 612.01339 294.08015 611.6474 294.2467 609.462 295.2415 606.6276 298.48085 604.4148 300.52549L603.5313 299.98399C603.8939 299.57148 604.24966 299.15296 604.5983 298.72865 605.4173 297.53575 605.1919 296.54753 604.59579 295.42274L603.75198 294.68217 602.76229 294.41157C601.98727 294.31398 600.89608 294.6627 600.1626 295.0238L600.2062 295.00205C599.5322 295.33088 598.8617 295.66676 598.19479 296.00959L586.6743 282.67863 590.6334 281.96406Z" fill="#f76921" fill-rule="evenodd"/>
<path transform="matrix(1,0,0,-1,-2.24055,501.893)" d="M391.48655 353.43644V356.31245C389.43574 355.911 385.7599 355.1957 382.21629 354.5272 375.5291 353.26564 297.03984 343.68745 280.04426 342.05894 249.00444 339.08476 239.31111 337.87318 211.13112 341.69044 179.56375 345.96656 150.60713 353.8463 138.34854 383.5174 137.20934 386.27473 136.30609 389.5579 135.75548 393.07548H133.338C135.33002 380.83213 142.05347 369.2454 151.06246 361.22196 181.27364 334.31575 243.97205 335.36213 281.51835 339.4793 318.0359 343.48368 380.4745 351.9377 391.48655 353.43644Z" fill-rule="evenodd"/>
<path transform="matrix(1,0,0,-1,-2.24055,501.893)" d="M372.50608 381.26298V386.54115C367.50343 386.24864 362.19319 387.00965 358.17039 388.12388 356.05848 388.70884 353.55348 389.50895 353.55348 389.50895 353.55348 389.50895 355.54039 391.32316 357.43336 392.91465 357.4832 392.95655 357.56947 393.01063 357.6884 393.07548H350.42146C351.5469 392.37684 352.47038 391.65275 352.6426 391.2563 352.86079 390.7541 353.0111 390.15074 353.0111 390.15074L344.09248 393.07548H339.8443L372.50608 381.26298Z" fill-rule="evenodd"/>
<path transform="matrix(1,0,0,-1,-2.24055,501.893)" d="M372.50608 372.3127V372.9609L372.33955 372.74559 371.34706 374.18373C370.9011 374.8299 370.92344 375.01365 371.57048 376.0213 371.84226 376.4446 372.15834 376.87873 372.50608 377.31294V378.54264L371.4351 377.47169C371.4351 377.47169 369.31935 378.0436 367.7519 378.54237 365.28797 379.32643 364.17893 379.9297 362.7769 380.93775 355.9144 385.87174 355.1971 388.0662 347.40614 387.32795 346.21528 387.21513 345.95915 387.2502 344.8448 387.67903L330.82066 393.07548H323.41676C323.20936 392.15473 322.84187 391.00498 322.7925 389.96647 322.67747 387.5451 324.3718 384.17677 325.00364 383.70164 326.94969 382.2383 339.3759 378.72663 339.3759 378.72663 339.3759 378.72663 339.28245 376.3098 339.3759 374.79084 339.4507 373.5747 340.11164 372.14448 341.2185 370.80348 341.98405 369.87596 343.0611 368.59236 343.0611 368.59236 343.0611 368.59236 336.06849 362.17738 332.0055 359.1951 327.08039 355.58 322.01036 353.69898 318.38493 356.89576 317.54258 357.6385 317.4231 357.85115 317.19004 359.02217L310.4124 393.07548H307.51258L315.3243 357.17478C315.5782 356.00807 315.6553 355.8169 316.0955 355.2631 318.81068 351.84724 324.2169 352.8952 327.95179 354.2201 332.30134 355.763 335.69654 358.68403 340.2466 363.212 341.98634 364.94328 343.99443 366.45567 344.9037 366.5655 346.53013 366.7619 348.48124 365.717 350.6526 365.45994 354.0077 365.0627 357.33494 367.03977 359.09169 369.51365 360.68205 371.7532 360.90266 373.95896 362.09883 375.04145 362.53443 375.43565 369.0235 374.67546 369.963 374.12016 370.75157 373.65406 371.60908 373.01875 372.50608 372.3127Z" fill-rule="evenodd"/>
<path transform="matrix(1,0,0,-1,-2.24055,501.893)" d="M494.02177 468.27687H489.3633V467.1713H500.41889L463.08723 447.88029C462.02647 447.33216 461.869 447.2916 461.51243 447.4746 458.28996 449.1286 462.18275 453.44468 464.304 455.19444 468.1067 458.33116 476.95027 463.97126 476.95027 463.97126 476.95027 463.97126 473.0413 462.0494 470.56883 461.09074 466.75 459.61003 461.55348 459.50013 459.32899 462.74906 457.85194 464.90635 459.22996 467.60807 460.9873 468.46113 463.2371 469.5532 468.34928 469.1405 472.0429 470.11946 473.34434 470.4644 474.49043 470.99217 475.6486 471.58085 476.71516 472.12294 476.83366 472.21263 476.83366 472.4777V473.0676L469.99226 470.7085C469.99226 470.7085 476.33283 477.0995 479.41328 479.1482 482.1327 480.95677 484.96333 480.1654 487.33647 477.1213 488.77165 475.28038 489.40049 473.03208 491.94294 470.3037 492.85835 469.3214 494.02177 468.27687 494.02177 468.27687Z" fill="#f76921" fill-rule="evenodd"/>
<path transform="matrix(1,0,0,-1,-2.24055,501.893)" d="M406.2253 474.91023H409.02607C409.02607 474.91023 409.0732 473.95173 409.02607 473.14134 408.856 470.21653 407.45814 469.22019 407.18348 466.36058 407.04914 464.96195 407.18348 463.11759 407.18348 463.11759 407.18348 463.11759 409.0506 468.28413 410.68443 470.85649 412.758 474.12129 413.92454 474.01017 417.502 471.7778 421.41084 469.33866 423.59529 466.81669 422.6613 462.49848 422.1058 459.9302 420.04557 459.14695 417.5094 458.69535 415.96476 458.4203 402.86137 459.86109 399.07606 460.7222 395.63096 461.50593 391.68763 462.46067 391.68763 462.46067 391.68763 462.46067 393.35066 465.866 394.83808 468.27687 395.7285 469.72004 399.79914 473.544 400.91865 473.9889 401.75984 474.3232 402.6692 474.5813 403.58189 474.71595 404.76698 474.89079 405.0313 474.91023 406.2253 474.91023Z" fill="#f76921" fill-rule="evenodd"/>
<path transform="matrix(1,0,0,-1,-2.24055,501.893)" d="M402.76124 457.34657C403.39497 456.3529 402.14659 455.75776 401.65568 455.56294 399.7351 454.80073 396.17823 454.76454 395.01496 455.01017 391.64543 455.72169 387.17289 458.81758 383.96675 459.24815 382.36476 459.46327 380.7195 459.27836 380.56697 459.6306 380.46855 459.85786 380.99134 460.30867 381.7556 460.6608 384.12547 461.7526 387.281 461.72093 389.56825 461.6435 392.11894 461.5572 400.03749 459.88606 400.91865 459.24815 401.73985 458.65364 402.4053 457.9047 402.76124 457.34657Z" fill="#f76921" fill-rule="evenodd"/>
</g>
</svg>
